%TF.GenerationSoftware,KiCad,Pcbnew,10.0.3*%
%TF.CreationDate,2026-07-20T23:05:51+05:30*%
%TF.ProjectId,Environment display,456e7669-726f-46e6-9d65-6e7420646973,rev?*%
%TF.SameCoordinates,Original*%
%TF.FileFunction,Soldermask,Top*%
%TF.FilePolarity,Negative*%
%FSLAX46Y46*%
G04 Gerber Fmt 4.6, Leading zero omitted, Abs format (unit mm)*
G04 Created by KiCad (PCBNEW 10.0.3) date 2026-07-20 23:05:51*
%MOMM*%
%LPD*%
G01*
G04 APERTURE LIST*
G04 Aperture macros list*
%AMRoundRect*
0 Rectangle with rounded corners*
0 $1 Rounding radius*
0 $2 $3 $4 $5 $6 $7 $8 $9 X,Y pos of 4 corners*
0 Add a 4 corners polygon primitive as box body*
4,1,4,$2,$3,$4,$5,$6,$7,$8,$9,$2,$3,0*
0 Add four circle primitives for the rounded corners*
1,1,$1+$1,$2,$3*
1,1,$1+$1,$4,$5*
1,1,$1+$1,$6,$7*
1,1,$1+$1,$8,$9*
0 Add four rect primitives between the rounded corners*
20,1,$1+$1,$2,$3,$4,$5,0*
20,1,$1+$1,$4,$5,$6,$7,0*
20,1,$1+$1,$6,$7,$8,$9,0*
20,1,$1+$1,$8,$9,$2,$3,0*%
%AMRotRect*
0 Rectangle, with rotation*
0 The origin of the aperture is its center*
0 $1 length*
0 $2 width*
0 $3 Rotation angle, in degrees counterclockwise*
0 Add horizontal line*
21,1,$1,$2,0,0,$3*%
G04 Aperture macros list end*
%ADD10C,0.000000*%
%ADD11RoundRect,0.225000X-0.225000X-0.250000X0.225000X-0.250000X0.225000X0.250000X-0.225000X0.250000X0*%
%ADD12RoundRect,0.225000X0.335876X0.017678X0.017678X0.335876X-0.335876X-0.017678X-0.017678X-0.335876X0*%
%ADD13RoundRect,0.218750X0.026517X-0.335876X0.335876X-0.026517X-0.026517X0.335876X-0.335876X0.026517X0*%
%ADD14RoundRect,0.200000X0.053033X-0.335876X0.335876X-0.053033X-0.053033X0.335876X-0.335876X0.053033X0*%
%ADD15RoundRect,0.225000X0.017678X-0.335876X0.335876X-0.017678X-0.017678X0.335876X-0.335876X0.017678X0*%
%ADD16RoundRect,0.250000X-0.512652X-0.159099X-0.159099X-0.512652X0.512652X0.159099X0.159099X0.512652X0*%
%ADD17RoundRect,0.250000X-0.159099X0.512652X-0.512652X0.159099X0.159099X-0.512652X0.512652X-0.159099X0*%
%ADD18RoundRect,0.250000X-0.250000X-0.475000X0.250000X-0.475000X0.250000X0.475000X-0.250000X0.475000X0*%
%ADD19RoundRect,0.200000X-0.200000X-0.275000X0.200000X-0.275000X0.200000X0.275000X-0.200000X0.275000X0*%
%ADD20RoundRect,0.076200X0.775000X0.675000X-0.775000X0.675000X-0.775000X-0.675000X0.775000X-0.675000X0*%
%ADD21RoundRect,0.076200X0.585000X0.900000X-0.585000X0.900000X-0.585000X-0.900000X0.585000X-0.900000X0*%
%ADD22RoundRect,0.076200X0.950000X0.675000X-0.950000X0.675000X-0.950000X-0.675000X0.950000X-0.675000X0*%
%ADD23RoundRect,0.076200X0.600000X0.500000X-0.600000X0.500000X-0.600000X-0.500000X0.600000X-0.500000X0*%
%ADD24RoundRect,0.076200X0.425000X0.550000X-0.425000X0.550000X-0.425000X-0.550000X0.425000X-0.550000X0*%
%ADD25RoundRect,0.076200X0.375000X0.550000X-0.375000X0.550000X-0.375000X-0.550000X0.375000X-0.550000X0*%
%ADD26RoundRect,0.150000X-0.587500X-0.150000X0.587500X-0.150000X0.587500X0.150000X-0.587500X0.150000X0*%
%ADD27RoundRect,0.150000X0.521491X-0.309359X-0.309359X0.521491X-0.521491X0.309359X0.309359X-0.521491X0*%
%ADD28RoundRect,0.050000X0.300520X-0.229810X-0.229810X0.300520X-0.300520X0.229810X0.229810X-0.300520X0*%
%ADD29RoundRect,0.050000X0.300520X0.229810X0.229810X0.300520X-0.300520X-0.229810X-0.229810X-0.300520X0*%
%ADD30RotRect,1.650000X1.650000X135.000000*%
%ADD31RoundRect,0.250000X0.475000X-0.250000X0.475000X0.250000X-0.475000X0.250000X-0.475000X-0.250000X0*%
%ADD32RoundRect,0.200000X-0.335876X-0.053033X-0.053033X-0.335876X0.335876X0.053033X0.053033X0.335876X0*%
%ADD33RoundRect,0.150000X0.150000X-0.512500X0.150000X0.512500X-0.150000X0.512500X-0.150000X-0.512500X0*%
%ADD34C,0.650000*%
%ADD35RoundRect,0.150000X0.150000X0.575000X-0.150000X0.575000X-0.150000X-0.575000X0.150000X-0.575000X0*%
%ADD36RoundRect,0.075000X0.075000X0.650000X-0.075000X0.650000X-0.075000X-0.650000X0.075000X-0.650000X0*%
%ADD37O,1.000000X2.100000*%
%ADD38O,1.000000X1.600000*%
%ADD39R,0.499999X0.249999*%
%ADD40R,0.900001X1.599999*%
%ADD41C,0.499999*%
%ADD42RoundRect,0.150000X0.875000X0.150000X-0.875000X0.150000X-0.875000X-0.150000X0.875000X-0.150000X0*%
%ADD43RoundRect,0.102000X0.282843X-0.106066X-0.106066X0.282843X-0.282843X0.106066X0.106066X-0.282843X0*%
%ADD44RotRect,0.500000X0.350000X135.000000*%
%ADD45R,0.900000X1.500000*%
%ADD46R,1.500000X0.900000*%
%ADD47C,0.600000*%
%ADD48R,4.200000X4.200000*%
%ADD49R,1.800000X1.100000*%
%ADD50RoundRect,0.200000X-0.275000X0.200000X-0.275000X-0.200000X0.275000X-0.200000X0.275000X0.200000X0*%
%ADD51RoundRect,0.200000X0.200000X0.275000X-0.200000X0.275000X-0.200000X-0.275000X0.200000X-0.275000X0*%
%ADD52R,1.700000X1.700000*%
%ADD53C,1.700000*%
%ADD54RoundRect,0.250000X-0.375000X-0.625000X0.375000X-0.625000X0.375000X0.625000X-0.375000X0.625000X0*%
%ADD55RoundRect,0.250000X0.159099X-0.512652X0.512652X-0.159099X-0.159099X0.512652X-0.512652X0.159099X0*%
%ADD56R,3.600000X2.600000*%
G04 APERTURE END LIST*
D10*
%TO.C,L1*%
G36*
X124700000Y-44150000D02*
G01*
X124700000Y-46850000D01*
X123250000Y-47150000D01*
X123250000Y-43850000D01*
X124700000Y-44150000D01*
G37*
G36*
X121750000Y-47150000D02*
G01*
X120300000Y-46850000D01*
X120300000Y-44150000D01*
X121750000Y-43850000D01*
X121750000Y-47150000D01*
G37*
%TD*%
D11*
%TO.C,C6*%
X114750000Y-44500000D03*
X113200000Y-44500000D03*
%TD*%
D12*
%TO.C,C2*%
X118701992Y-47701992D03*
X119798008Y-48798008D03*
%TD*%
D13*
%TO.C,D2*%
X113556847Y-72693153D03*
X112443153Y-73806847D03*
%TD*%
D11*
%TO.C,C11*%
X107300000Y-78500000D03*
X105750000Y-78500000D03*
%TD*%
%TO.C,C16*%
X105750000Y-74750000D03*
X107300000Y-74750000D03*
%TD*%
D14*
%TO.C,R5*%
X103083363Y-73416637D03*
X101916637Y-74583363D03*
%TD*%
D15*
%TO.C,C12*%
X103548008Y-41951992D03*
X102451992Y-43048008D03*
%TD*%
D16*
%TO.C,C13*%
X109671751Y-42171751D03*
X108328249Y-40828249D03*
%TD*%
D17*
%TO.C,C10*%
X101328249Y-77671751D03*
X102671751Y-76328249D03*
%TD*%
D18*
%TO.C,C14*%
X132900000Y-53500000D03*
X131000000Y-53500000D03*
%TD*%
D19*
%TO.C,R6*%
X101400000Y-90000000D03*
X99750000Y-90000000D03*
%TD*%
D15*
%TO.C,C15*%
X106048008Y-39201992D03*
X104951992Y-40298008D03*
%TD*%
D20*
%TO.C,J3*%
X105185000Y-84925000D03*
D21*
X116505000Y-85150000D03*
D22*
X114480000Y-95625000D03*
D23*
X105010000Y-94650000D03*
X105010000Y-90950000D03*
D24*
X107644999Y-84800000D03*
X108745000Y-84800000D03*
X109844999Y-84800000D03*
X110945000Y-84800000D03*
X112045000Y-84800000D03*
X113145000Y-84800000D03*
X114245000Y-84800000D03*
D25*
X115295000Y-84800000D03*
D22*
X108510000Y-95625000D03*
%TD*%
D19*
%TO.C,R11*%
X103175000Y-70250000D03*
X104825000Y-70250000D03*
%TD*%
D26*
%TO.C,Q2*%
X109875000Y-46300000D03*
X109875000Y-48200000D03*
X111750000Y-47250000D03*
%TD*%
D27*
%TO.C,Q1*%
X111447712Y-39791215D03*
X112791215Y-38447712D03*
X110793638Y-37793638D03*
%TD*%
D28*
%TO.C,U2*%
X117869619Y-41250990D03*
X118152462Y-40968148D03*
X118435305Y-40685305D03*
X118718148Y-40402462D03*
X119000990Y-40119619D03*
D29*
X119000990Y-39200381D03*
X118718148Y-38917538D03*
X118435305Y-38634695D03*
X118152462Y-38351852D03*
X117869619Y-38069010D03*
D28*
X116950381Y-38069010D03*
X116667538Y-38351852D03*
X116384695Y-38634695D03*
X116101852Y-38917538D03*
X115819010Y-39200381D03*
D29*
X115819010Y-40119619D03*
X116101852Y-40402462D03*
X116384695Y-40685305D03*
X116667538Y-40968148D03*
X116950381Y-41250990D03*
D30*
X117410000Y-39660000D03*
%TD*%
D31*
%TO.C,C1*%
X126000000Y-47050001D03*
X126000000Y-48949999D03*
%TD*%
D32*
%TO.C,R4*%
X120333363Y-38083363D03*
X119166637Y-36916637D03*
%TD*%
D14*
%TO.C,R3*%
X119083363Y-45166637D03*
X117916637Y-46333363D03*
%TD*%
D33*
%TO.C,D1*%
X129637500Y-42812500D03*
X130587499Y-45087500D03*
X128687501Y-45087500D03*
%TD*%
D34*
%TO.C,J1*%
X129890000Y-37850000D03*
X124110000Y-37850000D03*
D35*
X130250000Y-39295000D03*
X129450001Y-39295000D03*
D36*
X128250000Y-39294999D03*
X127250000Y-39295000D03*
X126750000Y-39295000D03*
X125750000Y-39294999D03*
D35*
X124549999Y-39295000D03*
X123750000Y-39295000D03*
X123750000Y-39295000D03*
X124549999Y-39295000D03*
D36*
X125250000Y-39295000D03*
X126250000Y-39295000D03*
X127750000Y-39295000D03*
X128750000Y-39295000D03*
D35*
X129450001Y-39295000D03*
X130250000Y-39295000D03*
D37*
X131320000Y-38380000D03*
D38*
X131320000Y-34200000D03*
D37*
X122680000Y-38380000D03*
D38*
X122680000Y-34200000D03*
%TD*%
D39*
%TO.C,U1*%
X121299999Y-49850000D03*
X121299999Y-50349999D03*
X121299999Y-50850001D03*
X121299999Y-51349999D03*
X123200001Y-51349999D03*
X123200001Y-50850001D03*
X123200001Y-50349999D03*
X123200001Y-49850000D03*
D40*
X122250000Y-50599998D03*
D41*
X122250000Y-50200002D03*
X122250000Y-51000000D03*
%TD*%
D42*
%TO.C,U6*%
X130500000Y-65750000D03*
X130500001Y-64480000D03*
X130500000Y-63210000D03*
X130500000Y-61940000D03*
X130500000Y-60670000D03*
X130500000Y-59400000D03*
X130500001Y-58130000D03*
X130500000Y-56860000D03*
X121200000Y-56860000D03*
X121199999Y-58130000D03*
X121200000Y-59400000D03*
X121200000Y-60670000D03*
X121200000Y-61940000D03*
X121200000Y-63210000D03*
X121199999Y-64480000D03*
X121200000Y-65750000D03*
%TD*%
D43*
%TO.C,U5*%
X107868718Y-44325825D03*
X108222272Y-43972272D03*
X108575825Y-43618718D03*
X106631282Y-41674175D03*
X106277728Y-42027728D03*
X105924175Y-42381282D03*
%TD*%
D44*
%TO.C,U4*%
X103260786Y-45739645D03*
X103720406Y-45280025D03*
X104180025Y-44820406D03*
X104639645Y-44360786D03*
X106089214Y-45810355D03*
X105629594Y-46269975D03*
X105169975Y-46729594D03*
X104710355Y-47189214D03*
%TD*%
D45*
%TO.C,U3*%
X99385000Y-68095000D03*
X100655000Y-68095000D03*
X101925000Y-68095000D03*
X103195000Y-68095000D03*
X104465000Y-68095000D03*
X105735000Y-68095000D03*
X107005000Y-68095000D03*
X108275000Y-68095000D03*
X109545000Y-68095000D03*
X110815000Y-68095000D03*
X112085000Y-68095000D03*
X113355000Y-68095000D03*
X114625000Y-68095000D03*
X115895000Y-68095000D03*
D46*
X117145000Y-65055000D03*
X117145000Y-63785001D03*
X117145000Y-62515000D03*
X117145000Y-61244999D03*
X117145000Y-59975000D03*
X117145000Y-58705000D03*
X117145000Y-57435001D03*
X117145000Y-56165000D03*
X117145000Y-54895000D03*
X117145000Y-53625000D03*
D45*
X115895000Y-50595000D03*
X114625000Y-50595000D03*
X113355000Y-50595000D03*
X112085000Y-50595000D03*
X110815000Y-50595000D03*
X109545000Y-50595000D03*
X108275000Y-50595000D03*
X107005000Y-50595000D03*
X105735000Y-50595000D03*
X104465000Y-50595000D03*
X103195000Y-50595000D03*
X101925000Y-50595000D03*
X100655000Y-50595000D03*
X99385000Y-50595000D03*
D47*
X105962499Y-61550000D03*
X107487500Y-61550000D03*
X105200000Y-60787501D03*
X106725000Y-60787500D03*
X108250000Y-60787500D03*
X105962500Y-60025001D03*
D48*
X106725000Y-60025000D03*
D47*
X107487500Y-60025000D03*
X105200000Y-59262500D03*
X106725000Y-59262500D03*
X108250000Y-59262500D03*
X105962500Y-58500000D03*
X107487500Y-58500000D03*
%TD*%
D49*
%TO.C,SW2*%
X90150000Y-90150000D03*
X96350000Y-90150000D03*
X90150000Y-93850000D03*
X96350000Y-93850000D03*
%TD*%
%TO.C,SW1*%
X79900000Y-90150000D03*
X86100000Y-90150000D03*
X79900000Y-93850000D03*
X86100000Y-93850000D03*
%TD*%
D19*
%TO.C,R10*%
X112925000Y-70000000D03*
X114575000Y-70000000D03*
%TD*%
%TO.C,R9*%
X114250000Y-47750000D03*
X115900000Y-47750000D03*
%TD*%
D14*
%TO.C,R8*%
X100416637Y-47833363D03*
X101583363Y-46666637D03*
%TD*%
D50*
%TO.C,R7*%
X99500000Y-70350000D03*
X99500000Y-72000000D03*
%TD*%
D51*
%TO.C,R2*%
X122750000Y-41750000D03*
X121100000Y-41750000D03*
%TD*%
D50*
%TO.C,R1*%
X126750000Y-42675000D03*
X126750000Y-44325000D03*
%TD*%
D52*
%TO.C,J2*%
X138880000Y-71250000D03*
D53*
X141420000Y-71250000D03*
X143959999Y-71250000D03*
X146500000Y-71250000D03*
%TD*%
D54*
%TO.C,F1*%
X128350000Y-48500000D03*
X131150000Y-48500000D03*
%TD*%
D55*
%TO.C,C7*%
X119078249Y-34671751D03*
X120421751Y-33328249D03*
%TD*%
D17*
%TO.C,C4*%
X118171751Y-43328249D03*
X116828249Y-44671751D03*
%TD*%
D18*
%TO.C,C3*%
X112000000Y-34500000D03*
X113900000Y-34500000D03*
%TD*%
D56*
%TO.C,BT1*%
X144250000Y-62150000D03*
X144250000Y-32850000D03*
%TD*%
D17*
%TO.C,C5*%
X116921751Y-35078249D03*
X115578249Y-36421751D03*
%TD*%
M02*
