%TF.GenerationSoftware,KiCad,Pcbnew,10.0.3*%
%TF.CreationDate,2026-07-20T23:05:51+05:30*%
%TF.ProjectId,Environment display,456e7669-726f-46e6-9d65-6e7420646973,rev?*%
%TF.SameCoordinates,Original*%
%TF.FileFunction,Legend,Top*%
%TF.FilePolarity,Positive*%
%FSLAX46Y46*%
G04 Gerber Fmt 4.6, Leading zero omitted, Abs format (unit mm)*
G04 Created by KiCad (PCBNEW 10.0.3) date 2026-07-20 23:05:51*
%MOMM*%
%LPD*%
G01*
G04 APERTURE LIST*
%ADD10C,0.300000*%
%ADD11C,0.200000*%
%ADD12C,0.150000*%
%ADD13C,0.120000*%
%ADD14C,0.127000*%
%ADD15C,0.170000*%
%ADD16C,0.100000*%
G04 APERTURE END LIST*
D10*
X138340225Y-85050828D02*
X138483082Y-85050828D01*
X138483082Y-85050828D02*
X138625939Y-85122257D01*
X138625939Y-85122257D02*
X138697368Y-85193685D01*
X138697368Y-85193685D02*
X138768796Y-85336542D01*
X138768796Y-85336542D02*
X138840225Y-85622257D01*
X138840225Y-85622257D02*
X138840225Y-85979400D01*
X138840225Y-85979400D02*
X138768796Y-86265114D01*
X138768796Y-86265114D02*
X138697368Y-86407971D01*
X138697368Y-86407971D02*
X138625939Y-86479400D01*
X138625939Y-86479400D02*
X138483082Y-86550828D01*
X138483082Y-86550828D02*
X138340225Y-86550828D01*
X138340225Y-86550828D02*
X138197368Y-86479400D01*
X138197368Y-86479400D02*
X138125939Y-86407971D01*
X138125939Y-86407971D02*
X138054510Y-86265114D01*
X138054510Y-86265114D02*
X137983082Y-85979400D01*
X137983082Y-85979400D02*
X137983082Y-85622257D01*
X137983082Y-85622257D02*
X138054510Y-85336542D01*
X138054510Y-85336542D02*
X138125939Y-85193685D01*
X138125939Y-85193685D02*
X138197368Y-85122257D01*
X138197368Y-85122257D02*
X138340225Y-85050828D01*
X139483081Y-86407971D02*
X139554510Y-86479400D01*
X139554510Y-86479400D02*
X139483081Y-86550828D01*
X139483081Y-86550828D02*
X139411653Y-86479400D01*
X139411653Y-86479400D02*
X139483081Y-86407971D01*
X139483081Y-86407971D02*
X139483081Y-86550828D01*
X140268796Y-86550828D02*
X140554510Y-86550828D01*
X140554510Y-86550828D02*
X140697367Y-86479400D01*
X140697367Y-86479400D02*
X140768796Y-86407971D01*
X140768796Y-86407971D02*
X140911653Y-86193685D01*
X140911653Y-86193685D02*
X140983082Y-85907971D01*
X140983082Y-85907971D02*
X140983082Y-85336542D01*
X140983082Y-85336542D02*
X140911653Y-85193685D01*
X140911653Y-85193685D02*
X140840225Y-85122257D01*
X140840225Y-85122257D02*
X140697367Y-85050828D01*
X140697367Y-85050828D02*
X140411653Y-85050828D01*
X140411653Y-85050828D02*
X140268796Y-85122257D01*
X140268796Y-85122257D02*
X140197367Y-85193685D01*
X140197367Y-85193685D02*
X140125939Y-85336542D01*
X140125939Y-85336542D02*
X140125939Y-85693685D01*
X140125939Y-85693685D02*
X140197367Y-85836542D01*
X140197367Y-85836542D02*
X140268796Y-85907971D01*
X140268796Y-85907971D02*
X140411653Y-85979400D01*
X140411653Y-85979400D02*
X140697367Y-85979400D01*
X140697367Y-85979400D02*
X140840225Y-85907971D01*
X140840225Y-85907971D02*
X140911653Y-85836542D01*
X140911653Y-85836542D02*
X140983082Y-85693685D01*
X142268796Y-85050828D02*
X141983081Y-85050828D01*
X141983081Y-85050828D02*
X141840224Y-85122257D01*
X141840224Y-85122257D02*
X141768796Y-85193685D01*
X141768796Y-85193685D02*
X141625938Y-85407971D01*
X141625938Y-85407971D02*
X141554510Y-85693685D01*
X141554510Y-85693685D02*
X141554510Y-86265114D01*
X141554510Y-86265114D02*
X141625938Y-86407971D01*
X141625938Y-86407971D02*
X141697367Y-86479400D01*
X141697367Y-86479400D02*
X141840224Y-86550828D01*
X141840224Y-86550828D02*
X142125938Y-86550828D01*
X142125938Y-86550828D02*
X142268796Y-86479400D01*
X142268796Y-86479400D02*
X142340224Y-86407971D01*
X142340224Y-86407971D02*
X142411653Y-86265114D01*
X142411653Y-86265114D02*
X142411653Y-85907971D01*
X142411653Y-85907971D02*
X142340224Y-85765114D01*
X142340224Y-85765114D02*
X142268796Y-85693685D01*
X142268796Y-85693685D02*
X142125938Y-85622257D01*
X142125938Y-85622257D02*
X141840224Y-85622257D01*
X141840224Y-85622257D02*
X141697367Y-85693685D01*
X141697367Y-85693685D02*
X141625938Y-85765114D01*
X141625938Y-85765114D02*
X141554510Y-85907971D01*
X144483081Y-85050828D02*
X144768795Y-85050828D01*
X144768795Y-85050828D02*
X144911652Y-85122257D01*
X144911652Y-85122257D02*
X145054509Y-85265114D01*
X145054509Y-85265114D02*
X145125938Y-85550828D01*
X145125938Y-85550828D02*
X145125938Y-86050828D01*
X145125938Y-86050828D02*
X145054509Y-86336542D01*
X145054509Y-86336542D02*
X144911652Y-86479400D01*
X144911652Y-86479400D02*
X144768795Y-86550828D01*
X144768795Y-86550828D02*
X144483081Y-86550828D01*
X144483081Y-86550828D02*
X144340224Y-86479400D01*
X144340224Y-86479400D02*
X144197366Y-86336542D01*
X144197366Y-86336542D02*
X144125938Y-86050828D01*
X144125938Y-86050828D02*
X144125938Y-85550828D01*
X144125938Y-85550828D02*
X144197366Y-85265114D01*
X144197366Y-85265114D02*
X144340224Y-85122257D01*
X144340224Y-85122257D02*
X144483081Y-85050828D01*
X146483081Y-86550828D02*
X145768795Y-86550828D01*
X145768795Y-86550828D02*
X145768795Y-85050828D01*
X146983081Y-85765114D02*
X147483081Y-85765114D01*
X147697367Y-86550828D02*
X146983081Y-86550828D01*
X146983081Y-86550828D02*
X146983081Y-85050828D01*
X146983081Y-85050828D02*
X147697367Y-85050828D01*
X148340224Y-86550828D02*
X148340224Y-85050828D01*
X148340224Y-85050828D02*
X148697367Y-85050828D01*
X148697367Y-85050828D02*
X148911653Y-85122257D01*
X148911653Y-85122257D02*
X149054510Y-85265114D01*
X149054510Y-85265114D02*
X149125939Y-85407971D01*
X149125939Y-85407971D02*
X149197367Y-85693685D01*
X149197367Y-85693685D02*
X149197367Y-85907971D01*
X149197367Y-85907971D02*
X149125939Y-86193685D01*
X149125939Y-86193685D02*
X149054510Y-86336542D01*
X149054510Y-86336542D02*
X148911653Y-86479400D01*
X148911653Y-86479400D02*
X148697367Y-86550828D01*
X148697367Y-86550828D02*
X148340224Y-86550828D01*
D11*
X129250000Y-69000000D02*
X157250000Y-69000000D01*
X157250000Y-97000000D01*
X129250000Y-97000000D01*
X129250000Y-69000000D01*
D12*
X113808333Y-43429580D02*
X113760714Y-43477200D01*
X113760714Y-43477200D02*
X113617857Y-43524819D01*
X113617857Y-43524819D02*
X113522619Y-43524819D01*
X113522619Y-43524819D02*
X113379762Y-43477200D01*
X113379762Y-43477200D02*
X113284524Y-43381961D01*
X113284524Y-43381961D02*
X113236905Y-43286723D01*
X113236905Y-43286723D02*
X113189286Y-43096247D01*
X113189286Y-43096247D02*
X113189286Y-42953390D01*
X113189286Y-42953390D02*
X113236905Y-42762914D01*
X113236905Y-42762914D02*
X113284524Y-42667676D01*
X113284524Y-42667676D02*
X113379762Y-42572438D01*
X113379762Y-42572438D02*
X113522619Y-42524819D01*
X113522619Y-42524819D02*
X113617857Y-42524819D01*
X113617857Y-42524819D02*
X113760714Y-42572438D01*
X113760714Y-42572438D02*
X113808333Y-42620057D01*
X114665476Y-42524819D02*
X114475000Y-42524819D01*
X114475000Y-42524819D02*
X114379762Y-42572438D01*
X114379762Y-42572438D02*
X114332143Y-42620057D01*
X114332143Y-42620057D02*
X114236905Y-42762914D01*
X114236905Y-42762914D02*
X114189286Y-42953390D01*
X114189286Y-42953390D02*
X114189286Y-43334342D01*
X114189286Y-43334342D02*
X114236905Y-43429580D01*
X114236905Y-43429580D02*
X114284524Y-43477200D01*
X114284524Y-43477200D02*
X114379762Y-43524819D01*
X114379762Y-43524819D02*
X114570238Y-43524819D01*
X114570238Y-43524819D02*
X114665476Y-43477200D01*
X114665476Y-43477200D02*
X114713095Y-43429580D01*
X114713095Y-43429580D02*
X114760714Y-43334342D01*
X114760714Y-43334342D02*
X114760714Y-43096247D01*
X114760714Y-43096247D02*
X114713095Y-43001009D01*
X114713095Y-43001009D02*
X114665476Y-42953390D01*
X114665476Y-42953390D02*
X114570238Y-42905771D01*
X114570238Y-42905771D02*
X114379762Y-42905771D01*
X114379762Y-42905771D02*
X114284524Y-42953390D01*
X114284524Y-42953390D02*
X114236905Y-43001009D01*
X114236905Y-43001009D02*
X114189286Y-43096247D01*
X117866724Y-49397574D02*
X117799380Y-49397574D01*
X117799380Y-49397574D02*
X117664693Y-49330230D01*
X117664693Y-49330230D02*
X117597350Y-49262887D01*
X117597350Y-49262887D02*
X117530006Y-49128200D01*
X117530006Y-49128200D02*
X117530006Y-48993513D01*
X117530006Y-48993513D02*
X117563678Y-48892498D01*
X117563678Y-48892498D02*
X117664693Y-48724139D01*
X117664693Y-48724139D02*
X117765708Y-48623124D01*
X117765708Y-48623124D02*
X117934067Y-48522108D01*
X117934067Y-48522108D02*
X118035082Y-48488437D01*
X118035082Y-48488437D02*
X118169769Y-48488437D01*
X118169769Y-48488437D02*
X118304456Y-48555780D01*
X118304456Y-48555780D02*
X118371800Y-48623124D01*
X118371800Y-48623124D02*
X118439143Y-48757811D01*
X118439143Y-48757811D02*
X118439143Y-48825154D01*
X118708517Y-49094528D02*
X118775861Y-49094528D01*
X118775861Y-49094528D02*
X118876876Y-49128200D01*
X118876876Y-49128200D02*
X119045235Y-49296559D01*
X119045235Y-49296559D02*
X119078907Y-49397574D01*
X119078907Y-49397574D02*
X119078907Y-49464917D01*
X119078907Y-49464917D02*
X119045235Y-49565933D01*
X119045235Y-49565933D02*
X118977891Y-49633276D01*
X118977891Y-49633276D02*
X118843204Y-49700620D01*
X118843204Y-49700620D02*
X118035082Y-49700620D01*
X118035082Y-49700620D02*
X118472815Y-50138352D01*
X111788530Y-73082354D02*
X111081424Y-72375247D01*
X111081424Y-72375247D02*
X111249782Y-72206888D01*
X111249782Y-72206888D02*
X111384469Y-72139545D01*
X111384469Y-72139545D02*
X111519156Y-72139545D01*
X111519156Y-72139545D02*
X111620172Y-72173217D01*
X111620172Y-72173217D02*
X111788530Y-72274232D01*
X111788530Y-72274232D02*
X111889546Y-72375247D01*
X111889546Y-72375247D02*
X111990561Y-72543606D01*
X111990561Y-72543606D02*
X112024233Y-72644621D01*
X112024233Y-72644621D02*
X112024233Y-72779308D01*
X112024233Y-72779308D02*
X111956889Y-72913995D01*
X111956889Y-72913995D02*
X111788530Y-73082354D01*
X111822202Y-71769156D02*
X111822202Y-71701812D01*
X111822202Y-71701812D02*
X111855874Y-71600797D01*
X111855874Y-71600797D02*
X112024233Y-71432438D01*
X112024233Y-71432438D02*
X112125248Y-71398766D01*
X112125248Y-71398766D02*
X112192591Y-71398766D01*
X112192591Y-71398766D02*
X112293607Y-71432438D01*
X112293607Y-71432438D02*
X112360950Y-71499782D01*
X112360950Y-71499782D02*
X112428294Y-71634469D01*
X112428294Y-71634469D02*
X112428294Y-72442591D01*
X112428294Y-72442591D02*
X112866026Y-72004858D01*
X105882142Y-77429580D02*
X105834523Y-77477200D01*
X105834523Y-77477200D02*
X105691666Y-77524819D01*
X105691666Y-77524819D02*
X105596428Y-77524819D01*
X105596428Y-77524819D02*
X105453571Y-77477200D01*
X105453571Y-77477200D02*
X105358333Y-77381961D01*
X105358333Y-77381961D02*
X105310714Y-77286723D01*
X105310714Y-77286723D02*
X105263095Y-77096247D01*
X105263095Y-77096247D02*
X105263095Y-76953390D01*
X105263095Y-76953390D02*
X105310714Y-76762914D01*
X105310714Y-76762914D02*
X105358333Y-76667676D01*
X105358333Y-76667676D02*
X105453571Y-76572438D01*
X105453571Y-76572438D02*
X105596428Y-76524819D01*
X105596428Y-76524819D02*
X105691666Y-76524819D01*
X105691666Y-76524819D02*
X105834523Y-76572438D01*
X105834523Y-76572438D02*
X105882142Y-76620057D01*
X106834523Y-77524819D02*
X106263095Y-77524819D01*
X106548809Y-77524819D02*
X106548809Y-76524819D01*
X106548809Y-76524819D02*
X106453571Y-76667676D01*
X106453571Y-76667676D02*
X106358333Y-76762914D01*
X106358333Y-76762914D02*
X106263095Y-76810533D01*
X107786904Y-77524819D02*
X107215476Y-77524819D01*
X107501190Y-77524819D02*
X107501190Y-76524819D01*
X107501190Y-76524819D02*
X107405952Y-76667676D01*
X107405952Y-76667676D02*
X107310714Y-76762914D01*
X107310714Y-76762914D02*
X107215476Y-76810533D01*
X105882142Y-73679580D02*
X105834523Y-73727200D01*
X105834523Y-73727200D02*
X105691666Y-73774819D01*
X105691666Y-73774819D02*
X105596428Y-73774819D01*
X105596428Y-73774819D02*
X105453571Y-73727200D01*
X105453571Y-73727200D02*
X105358333Y-73631961D01*
X105358333Y-73631961D02*
X105310714Y-73536723D01*
X105310714Y-73536723D02*
X105263095Y-73346247D01*
X105263095Y-73346247D02*
X105263095Y-73203390D01*
X105263095Y-73203390D02*
X105310714Y-73012914D01*
X105310714Y-73012914D02*
X105358333Y-72917676D01*
X105358333Y-72917676D02*
X105453571Y-72822438D01*
X105453571Y-72822438D02*
X105596428Y-72774819D01*
X105596428Y-72774819D02*
X105691666Y-72774819D01*
X105691666Y-72774819D02*
X105834523Y-72822438D01*
X105834523Y-72822438D02*
X105882142Y-72870057D01*
X106834523Y-73774819D02*
X106263095Y-73774819D01*
X106548809Y-73774819D02*
X106548809Y-72774819D01*
X106548809Y-72774819D02*
X106453571Y-72917676D01*
X106453571Y-72917676D02*
X106358333Y-73012914D01*
X106358333Y-73012914D02*
X106263095Y-73060533D01*
X107691666Y-72774819D02*
X107501190Y-72774819D01*
X107501190Y-72774819D02*
X107405952Y-72822438D01*
X107405952Y-72822438D02*
X107358333Y-72870057D01*
X107358333Y-72870057D02*
X107263095Y-73012914D01*
X107263095Y-73012914D02*
X107215476Y-73203390D01*
X107215476Y-73203390D02*
X107215476Y-73584342D01*
X107215476Y-73584342D02*
X107263095Y-73679580D01*
X107263095Y-73679580D02*
X107310714Y-73727200D01*
X107310714Y-73727200D02*
X107405952Y-73774819D01*
X107405952Y-73774819D02*
X107596428Y-73774819D01*
X107596428Y-73774819D02*
X107691666Y-73727200D01*
X107691666Y-73727200D02*
X107739285Y-73679580D01*
X107739285Y-73679580D02*
X107786904Y-73584342D01*
X107786904Y-73584342D02*
X107786904Y-73346247D01*
X107786904Y-73346247D02*
X107739285Y-73251009D01*
X107739285Y-73251009D02*
X107691666Y-73203390D01*
X107691666Y-73203390D02*
X107596428Y-73155771D01*
X107596428Y-73155771D02*
X107405952Y-73155771D01*
X107405952Y-73155771D02*
X107310714Y-73203390D01*
X107310714Y-73203390D02*
X107263095Y-73251009D01*
X107263095Y-73251009D02*
X107215476Y-73346247D01*
X101692591Y-73428293D02*
X101120172Y-73327278D01*
X101288530Y-73832354D02*
X100581424Y-73125247D01*
X100581424Y-73125247D02*
X100850798Y-72855873D01*
X100850798Y-72855873D02*
X100951813Y-72822201D01*
X100951813Y-72822201D02*
X101019156Y-72822201D01*
X101019156Y-72822201D02*
X101120172Y-72855873D01*
X101120172Y-72855873D02*
X101221187Y-72956888D01*
X101221187Y-72956888D02*
X101254859Y-73057904D01*
X101254859Y-73057904D02*
X101254859Y-73125247D01*
X101254859Y-73125247D02*
X101221187Y-73226262D01*
X101221187Y-73226262D02*
X100951813Y-73495636D01*
X101625248Y-72081423D02*
X101288530Y-72418140D01*
X101288530Y-72418140D02*
X101591576Y-72788530D01*
X101591576Y-72788530D02*
X101591576Y-72721186D01*
X101591576Y-72721186D02*
X101625248Y-72620171D01*
X101625248Y-72620171D02*
X101793607Y-72451812D01*
X101793607Y-72451812D02*
X101894622Y-72418140D01*
X101894622Y-72418140D02*
X101961965Y-72418140D01*
X101961965Y-72418140D02*
X102062981Y-72451812D01*
X102062981Y-72451812D02*
X102231339Y-72620171D01*
X102231339Y-72620171D02*
X102265011Y-72721186D01*
X102265011Y-72721186D02*
X102265011Y-72788530D01*
X102265011Y-72788530D02*
X102231339Y-72889545D01*
X102231339Y-72889545D02*
X102062981Y-73057904D01*
X102062981Y-73057904D02*
X101961965Y-73091575D01*
X101961965Y-73091575D02*
X101894622Y-73091575D01*
X101788530Y-42197667D02*
X101788530Y-42265011D01*
X101788530Y-42265011D02*
X101721186Y-42399698D01*
X101721186Y-42399698D02*
X101653843Y-42467041D01*
X101653843Y-42467041D02*
X101519156Y-42534385D01*
X101519156Y-42534385D02*
X101384469Y-42534385D01*
X101384469Y-42534385D02*
X101283454Y-42500713D01*
X101283454Y-42500713D02*
X101115095Y-42399698D01*
X101115095Y-42399698D02*
X101014080Y-42298683D01*
X101014080Y-42298683D02*
X100913064Y-42130324D01*
X100913064Y-42130324D02*
X100879393Y-42029309D01*
X100879393Y-42029309D02*
X100879393Y-41894622D01*
X100879393Y-41894622D02*
X100946736Y-41759935D01*
X100946736Y-41759935D02*
X101014080Y-41692591D01*
X101014080Y-41692591D02*
X101148767Y-41625248D01*
X101148767Y-41625248D02*
X101216110Y-41625248D01*
X102529308Y-41591576D02*
X102125247Y-41995637D01*
X102327278Y-41793606D02*
X101620171Y-41086500D01*
X101620171Y-41086500D02*
X101653843Y-41254858D01*
X101653843Y-41254858D02*
X101653843Y-41389545D01*
X101653843Y-41389545D02*
X101620171Y-41490561D01*
X102158919Y-40682438D02*
X102158919Y-40615095D01*
X102158919Y-40615095D02*
X102192591Y-40514080D01*
X102192591Y-40514080D02*
X102360950Y-40345721D01*
X102360950Y-40345721D02*
X102461965Y-40312049D01*
X102461965Y-40312049D02*
X102529309Y-40312049D01*
X102529309Y-40312049D02*
X102630324Y-40345721D01*
X102630324Y-40345721D02*
X102697667Y-40413064D01*
X102697667Y-40413064D02*
X102765011Y-40547751D01*
X102765011Y-40547751D02*
X102765011Y-41355873D01*
X102765011Y-41355873D02*
X103202744Y-40918141D01*
X109541169Y-40299693D02*
X109473825Y-40299693D01*
X109473825Y-40299693D02*
X109339138Y-40232349D01*
X109339138Y-40232349D02*
X109271795Y-40165006D01*
X109271795Y-40165006D02*
X109204451Y-40030319D01*
X109204451Y-40030319D02*
X109204451Y-39895632D01*
X109204451Y-39895632D02*
X109238123Y-39794617D01*
X109238123Y-39794617D02*
X109339138Y-39626258D01*
X109339138Y-39626258D02*
X109440153Y-39525243D01*
X109440153Y-39525243D02*
X109608512Y-39424227D01*
X109608512Y-39424227D02*
X109709527Y-39390556D01*
X109709527Y-39390556D02*
X109844214Y-39390556D01*
X109844214Y-39390556D02*
X109978901Y-39457899D01*
X109978901Y-39457899D02*
X110046245Y-39525243D01*
X110046245Y-39525243D02*
X110113588Y-39659930D01*
X110113588Y-39659930D02*
X110113588Y-39727273D01*
X110147260Y-41040471D02*
X109743199Y-40636410D01*
X109945230Y-40838441D02*
X110652336Y-40131334D01*
X110652336Y-40131334D02*
X110483978Y-40165006D01*
X110483978Y-40165006D02*
X110349291Y-40165006D01*
X110349291Y-40165006D02*
X110248275Y-40131334D01*
X111090069Y-40569067D02*
X111527802Y-41006800D01*
X111527802Y-41006800D02*
X111022726Y-41040472D01*
X111022726Y-41040472D02*
X111123741Y-41141487D01*
X111123741Y-41141487D02*
X111157413Y-41242502D01*
X111157413Y-41242502D02*
X111157413Y-41309846D01*
X111157413Y-41309846D02*
X111123741Y-41410861D01*
X111123741Y-41410861D02*
X110955382Y-41579220D01*
X110955382Y-41579220D02*
X110854367Y-41612891D01*
X110854367Y-41612891D02*
X110787024Y-41612891D01*
X110787024Y-41612891D02*
X110686008Y-41579220D01*
X110686008Y-41579220D02*
X110483978Y-41377189D01*
X110483978Y-41377189D02*
X110450306Y-41276174D01*
X110450306Y-41276174D02*
X110450306Y-41208830D01*
X102987632Y-78896769D02*
X102987632Y-78964113D01*
X102987632Y-78964113D02*
X102920288Y-79098800D01*
X102920288Y-79098800D02*
X102852945Y-79166143D01*
X102852945Y-79166143D02*
X102718258Y-79233487D01*
X102718258Y-79233487D02*
X102583571Y-79233487D01*
X102583571Y-79233487D02*
X102482556Y-79199815D01*
X102482556Y-79199815D02*
X102314197Y-79098800D01*
X102314197Y-79098800D02*
X102213182Y-78997785D01*
X102213182Y-78997785D02*
X102112166Y-78829426D01*
X102112166Y-78829426D02*
X102078495Y-78728411D01*
X102078495Y-78728411D02*
X102078495Y-78593724D01*
X102078495Y-78593724D02*
X102145838Y-78459037D01*
X102145838Y-78459037D02*
X102213182Y-78391693D01*
X102213182Y-78391693D02*
X102347869Y-78324350D01*
X102347869Y-78324350D02*
X102415212Y-78324350D01*
X103728410Y-78290678D02*
X103324349Y-78694739D01*
X103526380Y-78492708D02*
X102819273Y-77785602D01*
X102819273Y-77785602D02*
X102852945Y-77953960D01*
X102852945Y-77953960D02*
X102852945Y-78088647D01*
X102852945Y-78088647D02*
X102819273Y-78189663D01*
X103459037Y-77145838D02*
X103526380Y-77078495D01*
X103526380Y-77078495D02*
X103627395Y-77044823D01*
X103627395Y-77044823D02*
X103694739Y-77044823D01*
X103694739Y-77044823D02*
X103795754Y-77078495D01*
X103795754Y-77078495D02*
X103964113Y-77179510D01*
X103964113Y-77179510D02*
X104132472Y-77347869D01*
X104132472Y-77347869D02*
X104233487Y-77516227D01*
X104233487Y-77516227D02*
X104267159Y-77617243D01*
X104267159Y-77617243D02*
X104267159Y-77684586D01*
X104267159Y-77684586D02*
X104233487Y-77785601D01*
X104233487Y-77785601D02*
X104166143Y-77852945D01*
X104166143Y-77852945D02*
X104065128Y-77886617D01*
X104065128Y-77886617D02*
X103997785Y-77886617D01*
X103997785Y-77886617D02*
X103896769Y-77852945D01*
X103896769Y-77852945D02*
X103728411Y-77751930D01*
X103728411Y-77751930D02*
X103560052Y-77583571D01*
X103560052Y-77583571D02*
X103459037Y-77415212D01*
X103459037Y-77415212D02*
X103425365Y-77314197D01*
X103425365Y-77314197D02*
X103425365Y-77246853D01*
X103425365Y-77246853D02*
X103459037Y-77145838D01*
X131307142Y-52179580D02*
X131259523Y-52227200D01*
X131259523Y-52227200D02*
X131116666Y-52274819D01*
X131116666Y-52274819D02*
X131021428Y-52274819D01*
X131021428Y-52274819D02*
X130878571Y-52227200D01*
X130878571Y-52227200D02*
X130783333Y-52131961D01*
X130783333Y-52131961D02*
X130735714Y-52036723D01*
X130735714Y-52036723D02*
X130688095Y-51846247D01*
X130688095Y-51846247D02*
X130688095Y-51703390D01*
X130688095Y-51703390D02*
X130735714Y-51512914D01*
X130735714Y-51512914D02*
X130783333Y-51417676D01*
X130783333Y-51417676D02*
X130878571Y-51322438D01*
X130878571Y-51322438D02*
X131021428Y-51274819D01*
X131021428Y-51274819D02*
X131116666Y-51274819D01*
X131116666Y-51274819D02*
X131259523Y-51322438D01*
X131259523Y-51322438D02*
X131307142Y-51370057D01*
X132259523Y-52274819D02*
X131688095Y-52274819D01*
X131973809Y-52274819D02*
X131973809Y-51274819D01*
X131973809Y-51274819D02*
X131878571Y-51417676D01*
X131878571Y-51417676D02*
X131783333Y-51512914D01*
X131783333Y-51512914D02*
X131688095Y-51560533D01*
X133116666Y-51608152D02*
X133116666Y-52274819D01*
X132878571Y-51227200D02*
X132640476Y-51941485D01*
X132640476Y-51941485D02*
X133259523Y-51941485D01*
X100408333Y-89024819D02*
X100075000Y-88548628D01*
X99836905Y-89024819D02*
X99836905Y-88024819D01*
X99836905Y-88024819D02*
X100217857Y-88024819D01*
X100217857Y-88024819D02*
X100313095Y-88072438D01*
X100313095Y-88072438D02*
X100360714Y-88120057D01*
X100360714Y-88120057D02*
X100408333Y-88215295D01*
X100408333Y-88215295D02*
X100408333Y-88358152D01*
X100408333Y-88358152D02*
X100360714Y-88453390D01*
X100360714Y-88453390D02*
X100313095Y-88501009D01*
X100313095Y-88501009D02*
X100217857Y-88548628D01*
X100217857Y-88548628D02*
X99836905Y-88548628D01*
X101265476Y-88024819D02*
X101075000Y-88024819D01*
X101075000Y-88024819D02*
X100979762Y-88072438D01*
X100979762Y-88072438D02*
X100932143Y-88120057D01*
X100932143Y-88120057D02*
X100836905Y-88262914D01*
X100836905Y-88262914D02*
X100789286Y-88453390D01*
X100789286Y-88453390D02*
X100789286Y-88834342D01*
X100789286Y-88834342D02*
X100836905Y-88929580D01*
X100836905Y-88929580D02*
X100884524Y-88977200D01*
X100884524Y-88977200D02*
X100979762Y-89024819D01*
X100979762Y-89024819D02*
X101170238Y-89024819D01*
X101170238Y-89024819D02*
X101265476Y-88977200D01*
X101265476Y-88977200D02*
X101313095Y-88929580D01*
X101313095Y-88929580D02*
X101360714Y-88834342D01*
X101360714Y-88834342D02*
X101360714Y-88596247D01*
X101360714Y-88596247D02*
X101313095Y-88501009D01*
X101313095Y-88501009D02*
X101265476Y-88453390D01*
X101265476Y-88453390D02*
X101170238Y-88405771D01*
X101170238Y-88405771D02*
X100979762Y-88405771D01*
X100979762Y-88405771D02*
X100884524Y-88453390D01*
X100884524Y-88453390D02*
X100836905Y-88501009D01*
X100836905Y-88501009D02*
X100789286Y-88596247D01*
X104288530Y-39447667D02*
X104288530Y-39515011D01*
X104288530Y-39515011D02*
X104221186Y-39649698D01*
X104221186Y-39649698D02*
X104153843Y-39717041D01*
X104153843Y-39717041D02*
X104019156Y-39784385D01*
X104019156Y-39784385D02*
X103884469Y-39784385D01*
X103884469Y-39784385D02*
X103783454Y-39750713D01*
X103783454Y-39750713D02*
X103615095Y-39649698D01*
X103615095Y-39649698D02*
X103514080Y-39548683D01*
X103514080Y-39548683D02*
X103413064Y-39380324D01*
X103413064Y-39380324D02*
X103379393Y-39279309D01*
X103379393Y-39279309D02*
X103379393Y-39144622D01*
X103379393Y-39144622D02*
X103446736Y-39009935D01*
X103446736Y-39009935D02*
X103514080Y-38942591D01*
X103514080Y-38942591D02*
X103648767Y-38875248D01*
X103648767Y-38875248D02*
X103716110Y-38875248D01*
X105029308Y-38841576D02*
X104625247Y-39245637D01*
X104827278Y-39043606D02*
X104120171Y-38336500D01*
X104120171Y-38336500D02*
X104153843Y-38504858D01*
X104153843Y-38504858D02*
X104153843Y-38639545D01*
X104153843Y-38639545D02*
X104120171Y-38740561D01*
X104961965Y-37494706D02*
X104625247Y-37831423D01*
X104625247Y-37831423D02*
X104928293Y-38201812D01*
X104928293Y-38201812D02*
X104928293Y-38134469D01*
X104928293Y-38134469D02*
X104961965Y-38033454D01*
X104961965Y-38033454D02*
X105130324Y-37865095D01*
X105130324Y-37865095D02*
X105231339Y-37831423D01*
X105231339Y-37831423D02*
X105298683Y-37831423D01*
X105298683Y-37831423D02*
X105399698Y-37865095D01*
X105399698Y-37865095D02*
X105568057Y-38033454D01*
X105568057Y-38033454D02*
X105601728Y-38134469D01*
X105601728Y-38134469D02*
X105601728Y-38201812D01*
X105601728Y-38201812D02*
X105568057Y-38302828D01*
X105568057Y-38302828D02*
X105399698Y-38471186D01*
X105399698Y-38471186D02*
X105298683Y-38504858D01*
X105298683Y-38504858D02*
X105231339Y-38504858D01*
X112961201Y-97089441D02*
X112961201Y-97805206D01*
X112961201Y-97805206D02*
X112913483Y-97948359D01*
X112913483Y-97948359D02*
X112818048Y-98043795D01*
X112818048Y-98043795D02*
X112674895Y-98091512D01*
X112674895Y-98091512D02*
X112579460Y-98091512D01*
X113342943Y-97089441D02*
X113963272Y-97089441D01*
X113963272Y-97089441D02*
X113629249Y-97471183D01*
X113629249Y-97471183D02*
X113772402Y-97471183D01*
X113772402Y-97471183D02*
X113867837Y-97518900D01*
X113867837Y-97518900D02*
X113915555Y-97566618D01*
X113915555Y-97566618D02*
X113963272Y-97662053D01*
X113963272Y-97662053D02*
X113963272Y-97900642D01*
X113963272Y-97900642D02*
X113915555Y-97996077D01*
X113915555Y-97996077D02*
X113867837Y-98043795D01*
X113867837Y-98043795D02*
X113772402Y-98091512D01*
X113772402Y-98091512D02*
X113486096Y-98091512D01*
X113486096Y-98091512D02*
X113390660Y-98043795D01*
X113390660Y-98043795D02*
X113342943Y-97996077D01*
X103357142Y-69274819D02*
X103023809Y-68798628D01*
X102785714Y-69274819D02*
X102785714Y-68274819D01*
X102785714Y-68274819D02*
X103166666Y-68274819D01*
X103166666Y-68274819D02*
X103261904Y-68322438D01*
X103261904Y-68322438D02*
X103309523Y-68370057D01*
X103309523Y-68370057D02*
X103357142Y-68465295D01*
X103357142Y-68465295D02*
X103357142Y-68608152D01*
X103357142Y-68608152D02*
X103309523Y-68703390D01*
X103309523Y-68703390D02*
X103261904Y-68751009D01*
X103261904Y-68751009D02*
X103166666Y-68798628D01*
X103166666Y-68798628D02*
X102785714Y-68798628D01*
X104309523Y-69274819D02*
X103738095Y-69274819D01*
X104023809Y-69274819D02*
X104023809Y-68274819D01*
X104023809Y-68274819D02*
X103928571Y-68417676D01*
X103928571Y-68417676D02*
X103833333Y-68512914D01*
X103833333Y-68512914D02*
X103738095Y-68560533D01*
X105261904Y-69274819D02*
X104690476Y-69274819D01*
X104976190Y-69274819D02*
X104976190Y-68274819D01*
X104976190Y-68274819D02*
X104880952Y-68417676D01*
X104880952Y-68417676D02*
X104785714Y-68512914D01*
X104785714Y-68512914D02*
X104690476Y-68560533D01*
X110717261Y-45400057D02*
X110622023Y-45352438D01*
X110622023Y-45352438D02*
X110526785Y-45257200D01*
X110526785Y-45257200D02*
X110383928Y-45114342D01*
X110383928Y-45114342D02*
X110288690Y-45066723D01*
X110288690Y-45066723D02*
X110193452Y-45066723D01*
X110241071Y-45304819D02*
X110145833Y-45257200D01*
X110145833Y-45257200D02*
X110050595Y-45161961D01*
X110050595Y-45161961D02*
X110002976Y-44971485D01*
X110002976Y-44971485D02*
X110002976Y-44638152D01*
X110002976Y-44638152D02*
X110050595Y-44447676D01*
X110050595Y-44447676D02*
X110145833Y-44352438D01*
X110145833Y-44352438D02*
X110241071Y-44304819D01*
X110241071Y-44304819D02*
X110431547Y-44304819D01*
X110431547Y-44304819D02*
X110526785Y-44352438D01*
X110526785Y-44352438D02*
X110622023Y-44447676D01*
X110622023Y-44447676D02*
X110669642Y-44638152D01*
X110669642Y-44638152D02*
X110669642Y-44971485D01*
X110669642Y-44971485D02*
X110622023Y-45161961D01*
X110622023Y-45161961D02*
X110526785Y-45257200D01*
X110526785Y-45257200D02*
X110431547Y-45304819D01*
X110431547Y-45304819D02*
X110241071Y-45304819D01*
X111050595Y-44400057D02*
X111098214Y-44352438D01*
X111098214Y-44352438D02*
X111193452Y-44304819D01*
X111193452Y-44304819D02*
X111431547Y-44304819D01*
X111431547Y-44304819D02*
X111526785Y-44352438D01*
X111526785Y-44352438D02*
X111574404Y-44400057D01*
X111574404Y-44400057D02*
X111622023Y-44495295D01*
X111622023Y-44495295D02*
X111622023Y-44590533D01*
X111622023Y-44590533D02*
X111574404Y-44733390D01*
X111574404Y-44733390D02*
X111002976Y-45304819D01*
X111002976Y-45304819D02*
X111622023Y-45304819D01*
X112793707Y-37321605D02*
X112760035Y-37220590D01*
X112760035Y-37220590D02*
X112760035Y-37085903D01*
X112760035Y-37085903D02*
X112760035Y-36883872D01*
X112760035Y-36883872D02*
X112726363Y-36782857D01*
X112726363Y-36782857D02*
X112659020Y-36715514D01*
X112524333Y-36917544D02*
X112490661Y-36816529D01*
X112490661Y-36816529D02*
X112490661Y-36681842D01*
X112490661Y-36681842D02*
X112591676Y-36513483D01*
X112591676Y-36513483D02*
X112827379Y-36277781D01*
X112827379Y-36277781D02*
X112995737Y-36176766D01*
X112995737Y-36176766D02*
X113130424Y-36176766D01*
X113130424Y-36176766D02*
X113231440Y-36210437D01*
X113231440Y-36210437D02*
X113366127Y-36345124D01*
X113366127Y-36345124D02*
X113399798Y-36446140D01*
X113399798Y-36446140D02*
X113399798Y-36580827D01*
X113399798Y-36580827D02*
X113298783Y-36749185D01*
X113298783Y-36749185D02*
X113063081Y-36984888D01*
X113063081Y-36984888D02*
X112894722Y-37085903D01*
X112894722Y-37085903D02*
X112760035Y-37085903D01*
X112760035Y-37085903D02*
X112659020Y-37052231D01*
X112659020Y-37052231D02*
X112524333Y-36917544D01*
X113500814Y-37894025D02*
X113096753Y-37489964D01*
X113298783Y-37691994D02*
X114005890Y-36984888D01*
X114005890Y-36984888D02*
X113837531Y-37018559D01*
X113837531Y-37018559D02*
X113702844Y-37018559D01*
X113702844Y-37018559D02*
X113601829Y-36984888D01*
X115255641Y-40736862D02*
X114683221Y-41309282D01*
X114683221Y-41309282D02*
X114649549Y-41410297D01*
X114649549Y-41410297D02*
X114649549Y-41477641D01*
X114649549Y-41477641D02*
X114683221Y-41578656D01*
X114683221Y-41578656D02*
X114817908Y-41713343D01*
X114817908Y-41713343D02*
X114918923Y-41747015D01*
X114918923Y-41747015D02*
X114986267Y-41747015D01*
X114986267Y-41747015D02*
X115087282Y-41713343D01*
X115087282Y-41713343D02*
X115659702Y-41140923D01*
X115895404Y-41511313D02*
X115962747Y-41511313D01*
X115962747Y-41511313D02*
X116063763Y-41544984D01*
X116063763Y-41544984D02*
X116232121Y-41713343D01*
X116232121Y-41713343D02*
X116265793Y-41814358D01*
X116265793Y-41814358D02*
X116265793Y-41881702D01*
X116265793Y-41881702D02*
X116232121Y-41982717D01*
X116232121Y-41982717D02*
X116164778Y-42050061D01*
X116164778Y-42050061D02*
X116030091Y-42117404D01*
X116030091Y-42117404D02*
X115221969Y-42117404D01*
X115221969Y-42117404D02*
X115659702Y-42555137D01*
X124679581Y-48166666D02*
X124727201Y-48214285D01*
X124727201Y-48214285D02*
X124774820Y-48357142D01*
X124774820Y-48357142D02*
X124774820Y-48452380D01*
X124774820Y-48452380D02*
X124727201Y-48595237D01*
X124727201Y-48595237D02*
X124631962Y-48690475D01*
X124631962Y-48690475D02*
X124536724Y-48738094D01*
X124536724Y-48738094D02*
X124346248Y-48785713D01*
X124346248Y-48785713D02*
X124203391Y-48785713D01*
X124203391Y-48785713D02*
X124012915Y-48738094D01*
X124012915Y-48738094D02*
X123917677Y-48690475D01*
X123917677Y-48690475D02*
X123822439Y-48595237D01*
X123822439Y-48595237D02*
X123774820Y-48452380D01*
X123774820Y-48452380D02*
X123774820Y-48357142D01*
X123774820Y-48357142D02*
X123822439Y-48214285D01*
X123822439Y-48214285D02*
X123870058Y-48166666D01*
X124774820Y-47214285D02*
X124774820Y-47785713D01*
X124774820Y-47499999D02*
X123774820Y-47499999D01*
X123774820Y-47499999D02*
X123917677Y-47595237D01*
X123917677Y-47595237D02*
X124012915Y-47690475D01*
X124012915Y-47690475D02*
X124060534Y-47785713D01*
X120321706Y-36692591D02*
X120422721Y-36120172D01*
X119917645Y-36288530D02*
X120624752Y-35581424D01*
X120624752Y-35581424D02*
X120894126Y-35850798D01*
X120894126Y-35850798D02*
X120927798Y-35951813D01*
X120927798Y-35951813D02*
X120927798Y-36019156D01*
X120927798Y-36019156D02*
X120894126Y-36120172D01*
X120894126Y-36120172D02*
X120793111Y-36221187D01*
X120793111Y-36221187D02*
X120692095Y-36254859D01*
X120692095Y-36254859D02*
X120624752Y-36254859D01*
X120624752Y-36254859D02*
X120523737Y-36221187D01*
X120523737Y-36221187D02*
X120254363Y-35951813D01*
X121399202Y-36827278D02*
X120927798Y-37298683D01*
X121500217Y-36389546D02*
X120826782Y-36726263D01*
X120826782Y-36726263D02*
X121264515Y-37163996D01*
X117692591Y-45178293D02*
X117120172Y-45077278D01*
X117288530Y-45582354D02*
X116581424Y-44875247D01*
X116581424Y-44875247D02*
X116850798Y-44605873D01*
X116850798Y-44605873D02*
X116951813Y-44572201D01*
X116951813Y-44572201D02*
X117019156Y-44572201D01*
X117019156Y-44572201D02*
X117120172Y-44605873D01*
X117120172Y-44605873D02*
X117221187Y-44706888D01*
X117221187Y-44706888D02*
X117254859Y-44807904D01*
X117254859Y-44807904D02*
X117254859Y-44875247D01*
X117254859Y-44875247D02*
X117221187Y-44976262D01*
X117221187Y-44976262D02*
X116951813Y-45245636D01*
X117221187Y-44235484D02*
X117658920Y-43797751D01*
X117658920Y-43797751D02*
X117692591Y-44302827D01*
X117692591Y-44302827D02*
X117793607Y-44201812D01*
X117793607Y-44201812D02*
X117894622Y-44168140D01*
X117894622Y-44168140D02*
X117961965Y-44168140D01*
X117961965Y-44168140D02*
X118062981Y-44201812D01*
X118062981Y-44201812D02*
X118231339Y-44370171D01*
X118231339Y-44370171D02*
X118265011Y-44471186D01*
X118265011Y-44471186D02*
X118265011Y-44538530D01*
X118265011Y-44538530D02*
X118231339Y-44639545D01*
X118231339Y-44639545D02*
X118029309Y-44841575D01*
X118029309Y-44841575D02*
X117928294Y-44875247D01*
X117928294Y-44875247D02*
X117860950Y-44875247D01*
X127692319Y-44688094D02*
X126692319Y-44688094D01*
X126692319Y-44688094D02*
X126692319Y-44449999D01*
X126692319Y-44449999D02*
X126739938Y-44307142D01*
X126739938Y-44307142D02*
X126835176Y-44211904D01*
X126835176Y-44211904D02*
X126930414Y-44164285D01*
X126930414Y-44164285D02*
X127120890Y-44116666D01*
X127120890Y-44116666D02*
X127263747Y-44116666D01*
X127263747Y-44116666D02*
X127454223Y-44164285D01*
X127454223Y-44164285D02*
X127549461Y-44211904D01*
X127549461Y-44211904D02*
X127644700Y-44307142D01*
X127644700Y-44307142D02*
X127692319Y-44449999D01*
X127692319Y-44449999D02*
X127692319Y-44688094D01*
X127692319Y-43164285D02*
X127692319Y-43735713D01*
X127692319Y-43449999D02*
X126692319Y-43449999D01*
X126692319Y-43449999D02*
X126835176Y-43545237D01*
X126835176Y-43545237D02*
X126930414Y-43640475D01*
X126930414Y-43640475D02*
X126978033Y-43735713D01*
X126666666Y-40349819D02*
X126666666Y-41064104D01*
X126666666Y-41064104D02*
X126619047Y-41206961D01*
X126619047Y-41206961D02*
X126523809Y-41302200D01*
X126523809Y-41302200D02*
X126380952Y-41349819D01*
X126380952Y-41349819D02*
X126285714Y-41349819D01*
X127666666Y-41349819D02*
X127095238Y-41349819D01*
X127380952Y-41349819D02*
X127380952Y-40349819D01*
X127380952Y-40349819D02*
X127285714Y-40492676D01*
X127285714Y-40492676D02*
X127190476Y-40587914D01*
X127190476Y-40587914D02*
X127095238Y-40635533D01*
X121488095Y-48054820D02*
X121488095Y-48864343D01*
X121488095Y-48864343D02*
X121535714Y-48959581D01*
X121535714Y-48959581D02*
X121583333Y-49007201D01*
X121583333Y-49007201D02*
X121678571Y-49054820D01*
X121678571Y-49054820D02*
X121869047Y-49054820D01*
X121869047Y-49054820D02*
X121964285Y-49007201D01*
X121964285Y-49007201D02*
X122011904Y-48959581D01*
X122011904Y-48959581D02*
X122059523Y-48864343D01*
X122059523Y-48864343D02*
X122059523Y-48054820D01*
X123059523Y-49054820D02*
X122488095Y-49054820D01*
X122773809Y-49054820D02*
X122773809Y-48054820D01*
X122773809Y-48054820D02*
X122678571Y-48197677D01*
X122678571Y-48197677D02*
X122583333Y-48292915D01*
X122583333Y-48292915D02*
X122488095Y-48340534D01*
X117083333Y-53054820D02*
X117083333Y-52054820D01*
X117083333Y-52054820D02*
X117321428Y-52054820D01*
X117321428Y-52054820D02*
X117464285Y-52102439D01*
X117464285Y-52102439D02*
X117559523Y-52197677D01*
X117559523Y-52197677D02*
X117607142Y-52292915D01*
X117607142Y-52292915D02*
X117654761Y-52483391D01*
X117654761Y-52483391D02*
X117654761Y-52626248D01*
X117654761Y-52626248D02*
X117607142Y-52816724D01*
X117607142Y-52816724D02*
X117559523Y-52911962D01*
X117559523Y-52911962D02*
X117464285Y-53007201D01*
X117464285Y-53007201D02*
X117321428Y-53054820D01*
X117321428Y-53054820D02*
X117083333Y-53054820D01*
X118464285Y-53007201D02*
X118369047Y-53054820D01*
X118369047Y-53054820D02*
X118178571Y-53054820D01*
X118178571Y-53054820D02*
X118083333Y-53007201D01*
X118083333Y-53007201D02*
X118035714Y-52911962D01*
X118035714Y-52911962D02*
X118035714Y-52531010D01*
X118035714Y-52531010D02*
X118083333Y-52435772D01*
X118083333Y-52435772D02*
X118178571Y-52388153D01*
X118178571Y-52388153D02*
X118369047Y-52388153D01*
X118369047Y-52388153D02*
X118464285Y-52435772D01*
X118464285Y-52435772D02*
X118511904Y-52531010D01*
X118511904Y-52531010D02*
X118511904Y-52626248D01*
X118511904Y-52626248D02*
X118035714Y-52721486D01*
X118892857Y-53007201D02*
X118988095Y-53054820D01*
X118988095Y-53054820D02*
X119178571Y-53054820D01*
X119178571Y-53054820D02*
X119273809Y-53007201D01*
X119273809Y-53007201D02*
X119321428Y-52911962D01*
X119321428Y-52911962D02*
X119321428Y-52864343D01*
X119321428Y-52864343D02*
X119273809Y-52769105D01*
X119273809Y-52769105D02*
X119178571Y-52721486D01*
X119178571Y-52721486D02*
X119035714Y-52721486D01*
X119035714Y-52721486D02*
X118940476Y-52673867D01*
X118940476Y-52673867D02*
X118892857Y-52578629D01*
X118892857Y-52578629D02*
X118892857Y-52531010D01*
X118892857Y-52531010D02*
X118940476Y-52435772D01*
X118940476Y-52435772D02*
X119035714Y-52388153D01*
X119035714Y-52388153D02*
X119178571Y-52388153D01*
X119178571Y-52388153D02*
X119273809Y-52435772D01*
X119750000Y-53054820D02*
X119750000Y-52388153D01*
X119750000Y-52054820D02*
X119702381Y-52102439D01*
X119702381Y-52102439D02*
X119750000Y-52150058D01*
X119750000Y-52150058D02*
X119797619Y-52102439D01*
X119797619Y-52102439D02*
X119750000Y-52054820D01*
X119750000Y-52054820D02*
X119750000Y-52150058D01*
X120654761Y-52388153D02*
X120654761Y-53197677D01*
X120654761Y-53197677D02*
X120607142Y-53292915D01*
X120607142Y-53292915D02*
X120559523Y-53340534D01*
X120559523Y-53340534D02*
X120464285Y-53388153D01*
X120464285Y-53388153D02*
X120321428Y-53388153D01*
X120321428Y-53388153D02*
X120226190Y-53340534D01*
X120654761Y-53007201D02*
X120559523Y-53054820D01*
X120559523Y-53054820D02*
X120369047Y-53054820D01*
X120369047Y-53054820D02*
X120273809Y-53007201D01*
X120273809Y-53007201D02*
X120226190Y-52959581D01*
X120226190Y-52959581D02*
X120178571Y-52864343D01*
X120178571Y-52864343D02*
X120178571Y-52578629D01*
X120178571Y-52578629D02*
X120226190Y-52483391D01*
X120226190Y-52483391D02*
X120273809Y-52435772D01*
X120273809Y-52435772D02*
X120369047Y-52388153D01*
X120369047Y-52388153D02*
X120559523Y-52388153D01*
X120559523Y-52388153D02*
X120654761Y-52435772D01*
X121130952Y-52388153D02*
X121130952Y-53054820D01*
X121130952Y-52483391D02*
X121178571Y-52435772D01*
X121178571Y-52435772D02*
X121273809Y-52388153D01*
X121273809Y-52388153D02*
X121416666Y-52388153D01*
X121416666Y-52388153D02*
X121511904Y-52435772D01*
X121511904Y-52435772D02*
X121559523Y-52531010D01*
X121559523Y-52531010D02*
X121559523Y-53054820D01*
X122464285Y-53054820D02*
X122464285Y-52531010D01*
X122464285Y-52531010D02*
X122416666Y-52435772D01*
X122416666Y-52435772D02*
X122321428Y-52388153D01*
X122321428Y-52388153D02*
X122130952Y-52388153D01*
X122130952Y-52388153D02*
X122035714Y-52435772D01*
X122464285Y-53007201D02*
X122369047Y-53054820D01*
X122369047Y-53054820D02*
X122130952Y-53054820D01*
X122130952Y-53054820D02*
X122035714Y-53007201D01*
X122035714Y-53007201D02*
X121988095Y-52911962D01*
X121988095Y-52911962D02*
X121988095Y-52816724D01*
X121988095Y-52816724D02*
X122035714Y-52721486D01*
X122035714Y-52721486D02*
X122130952Y-52673867D01*
X122130952Y-52673867D02*
X122369047Y-52673867D01*
X122369047Y-52673867D02*
X122464285Y-52626248D01*
X122797619Y-52388153D02*
X123178571Y-52388153D01*
X122940476Y-52054820D02*
X122940476Y-52911962D01*
X122940476Y-52911962D02*
X122988095Y-53007201D01*
X122988095Y-53007201D02*
X123083333Y-53054820D01*
X123083333Y-53054820D02*
X123178571Y-53054820D01*
X123654762Y-53054820D02*
X123559524Y-53007201D01*
X123559524Y-53007201D02*
X123511905Y-52959581D01*
X123511905Y-52959581D02*
X123464286Y-52864343D01*
X123464286Y-52864343D02*
X123464286Y-52578629D01*
X123464286Y-52578629D02*
X123511905Y-52483391D01*
X123511905Y-52483391D02*
X123559524Y-52435772D01*
X123559524Y-52435772D02*
X123654762Y-52388153D01*
X123654762Y-52388153D02*
X123797619Y-52388153D01*
X123797619Y-52388153D02*
X123892857Y-52435772D01*
X123892857Y-52435772D02*
X123940476Y-52483391D01*
X123940476Y-52483391D02*
X123988095Y-52578629D01*
X123988095Y-52578629D02*
X123988095Y-52864343D01*
X123988095Y-52864343D02*
X123940476Y-52959581D01*
X123940476Y-52959581D02*
X123892857Y-53007201D01*
X123892857Y-53007201D02*
X123797619Y-53054820D01*
X123797619Y-53054820D02*
X123654762Y-53054820D01*
X124416667Y-53054820D02*
X124416667Y-52388153D01*
X124416667Y-52578629D02*
X124464286Y-52483391D01*
X124464286Y-52483391D02*
X124511905Y-52435772D01*
X124511905Y-52435772D02*
X124607143Y-52388153D01*
X124607143Y-52388153D02*
X124702381Y-52388153D01*
X124940477Y-52054820D02*
X125559524Y-52054820D01*
X125559524Y-52054820D02*
X125226191Y-52435772D01*
X125226191Y-52435772D02*
X125369048Y-52435772D01*
X125369048Y-52435772D02*
X125464286Y-52483391D01*
X125464286Y-52483391D02*
X125511905Y-52531010D01*
X125511905Y-52531010D02*
X125559524Y-52626248D01*
X125559524Y-52626248D02*
X125559524Y-52864343D01*
X125559524Y-52864343D02*
X125511905Y-52959581D01*
X125511905Y-52959581D02*
X125464286Y-53007201D01*
X125464286Y-53007201D02*
X125369048Y-53054820D01*
X125369048Y-53054820D02*
X125083334Y-53054820D01*
X125083334Y-53054820D02*
X124988096Y-53007201D01*
X124988096Y-53007201D02*
X124940477Y-52959581D01*
X126130953Y-52483391D02*
X126035715Y-52435772D01*
X126035715Y-52435772D02*
X125988096Y-52388153D01*
X125988096Y-52388153D02*
X125940477Y-52292915D01*
X125940477Y-52292915D02*
X125940477Y-52245296D01*
X125940477Y-52245296D02*
X125988096Y-52150058D01*
X125988096Y-52150058D02*
X126035715Y-52102439D01*
X126035715Y-52102439D02*
X126130953Y-52054820D01*
X126130953Y-52054820D02*
X126321429Y-52054820D01*
X126321429Y-52054820D02*
X126416667Y-52102439D01*
X126416667Y-52102439D02*
X126464286Y-52150058D01*
X126464286Y-52150058D02*
X126511905Y-52245296D01*
X126511905Y-52245296D02*
X126511905Y-52292915D01*
X126511905Y-52292915D02*
X126464286Y-52388153D01*
X126464286Y-52388153D02*
X126416667Y-52435772D01*
X126416667Y-52435772D02*
X126321429Y-52483391D01*
X126321429Y-52483391D02*
X126130953Y-52483391D01*
X126130953Y-52483391D02*
X126035715Y-52531010D01*
X126035715Y-52531010D02*
X125988096Y-52578629D01*
X125988096Y-52578629D02*
X125940477Y-52673867D01*
X125940477Y-52673867D02*
X125940477Y-52864343D01*
X125940477Y-52864343D02*
X125988096Y-52959581D01*
X125988096Y-52959581D02*
X126035715Y-53007201D01*
X126035715Y-53007201D02*
X126130953Y-53054820D01*
X126130953Y-53054820D02*
X126321429Y-53054820D01*
X126321429Y-53054820D02*
X126416667Y-53007201D01*
X126416667Y-53007201D02*
X126464286Y-52959581D01*
X126464286Y-52959581D02*
X126511905Y-52864343D01*
X126511905Y-52864343D02*
X126511905Y-52673867D01*
X126511905Y-52673867D02*
X126464286Y-52578629D01*
X126464286Y-52578629D02*
X126416667Y-52531010D01*
X126416667Y-52531010D02*
X126321429Y-52483391D01*
X126845239Y-52054820D02*
X127511905Y-52054820D01*
X127511905Y-52054820D02*
X127083334Y-53054820D01*
X125088095Y-66859818D02*
X125088095Y-67669341D01*
X125088095Y-67669341D02*
X125135714Y-67764579D01*
X125135714Y-67764579D02*
X125183333Y-67812199D01*
X125183333Y-67812199D02*
X125278571Y-67859818D01*
X125278571Y-67859818D02*
X125469047Y-67859818D01*
X125469047Y-67859818D02*
X125564285Y-67812199D01*
X125564285Y-67812199D02*
X125611904Y-67764579D01*
X125611904Y-67764579D02*
X125659523Y-67669341D01*
X125659523Y-67669341D02*
X125659523Y-66859818D01*
X126564285Y-66859818D02*
X126373809Y-66859818D01*
X126373809Y-66859818D02*
X126278571Y-66907437D01*
X126278571Y-66907437D02*
X126230952Y-66955056D01*
X126230952Y-66955056D02*
X126135714Y-67097913D01*
X126135714Y-67097913D02*
X126088095Y-67288389D01*
X126088095Y-67288389D02*
X126088095Y-67669341D01*
X126088095Y-67669341D02*
X126135714Y-67764579D01*
X126135714Y-67764579D02*
X126183333Y-67812199D01*
X126183333Y-67812199D02*
X126278571Y-67859818D01*
X126278571Y-67859818D02*
X126469047Y-67859818D01*
X126469047Y-67859818D02*
X126564285Y-67812199D01*
X126564285Y-67812199D02*
X126611904Y-67764579D01*
X126611904Y-67764579D02*
X126659523Y-67669341D01*
X126659523Y-67669341D02*
X126659523Y-67431246D01*
X126659523Y-67431246D02*
X126611904Y-67336008D01*
X126611904Y-67336008D02*
X126564285Y-67288389D01*
X126564285Y-67288389D02*
X126469047Y-67240770D01*
X126469047Y-67240770D02*
X126278571Y-67240770D01*
X126278571Y-67240770D02*
X126183333Y-67288389D01*
X126183333Y-67288389D02*
X126135714Y-67336008D01*
X126135714Y-67336008D02*
X126088095Y-67431246D01*
X104859228Y-42577268D02*
X104286073Y-43150422D01*
X104286073Y-43150422D02*
X104252358Y-43251567D01*
X104252358Y-43251567D02*
X104252358Y-43318997D01*
X104252358Y-43318997D02*
X104286073Y-43420142D01*
X104286073Y-43420142D02*
X104420933Y-43555002D01*
X104420933Y-43555002D02*
X104522078Y-43588717D01*
X104522078Y-43588717D02*
X104589508Y-43588717D01*
X104589508Y-43588717D02*
X104690653Y-43555002D01*
X104690653Y-43555002D02*
X105263807Y-42981847D01*
X105938106Y-43656146D02*
X105600956Y-43318997D01*
X105600956Y-43318997D02*
X105230092Y-43622431D01*
X105230092Y-43622431D02*
X105297522Y-43622431D01*
X105297522Y-43622431D02*
X105398667Y-43656146D01*
X105398667Y-43656146D02*
X105567241Y-43824721D01*
X105567241Y-43824721D02*
X105600956Y-43925866D01*
X105600956Y-43925866D02*
X105600956Y-43993296D01*
X105600956Y-43993296D02*
X105567241Y-44094441D01*
X105567241Y-44094441D02*
X105398667Y-44263016D01*
X105398667Y-44263016D02*
X105297522Y-44296730D01*
X105297522Y-44296730D02*
X105230092Y-44296730D01*
X105230092Y-44296730D02*
X105128947Y-44263016D01*
X105128947Y-44263016D02*
X104960372Y-44094441D01*
X104960372Y-44094441D02*
X104926657Y-43993296D01*
X104926657Y-43993296D02*
X104926657Y-43925866D01*
X102018338Y-44174621D02*
X102590758Y-44747041D01*
X102590758Y-44747041D02*
X102691773Y-44780713D01*
X102691773Y-44780713D02*
X102759117Y-44780713D01*
X102759117Y-44780713D02*
X102860132Y-44747041D01*
X102860132Y-44747041D02*
X102994819Y-44612354D01*
X102994819Y-44612354D02*
X103028491Y-44511339D01*
X103028491Y-44511339D02*
X103028491Y-44443995D01*
X103028491Y-44443995D02*
X102994819Y-44342980D01*
X102994819Y-44342980D02*
X102422399Y-43770560D01*
X103297865Y-43366499D02*
X103769269Y-43837904D01*
X102860132Y-43265484D02*
X103196850Y-43938919D01*
X103196850Y-43938919D02*
X103634582Y-43501186D01*
X115303095Y-69409819D02*
X115303095Y-70219342D01*
X115303095Y-70219342D02*
X115350714Y-70314580D01*
X115350714Y-70314580D02*
X115398333Y-70362200D01*
X115398333Y-70362200D02*
X115493571Y-70409819D01*
X115493571Y-70409819D02*
X115684047Y-70409819D01*
X115684047Y-70409819D02*
X115779285Y-70362200D01*
X115779285Y-70362200D02*
X115826904Y-70314580D01*
X115826904Y-70314580D02*
X115874523Y-70219342D01*
X115874523Y-70219342D02*
X115874523Y-69409819D01*
X116255476Y-69409819D02*
X116874523Y-69409819D01*
X116874523Y-69409819D02*
X116541190Y-69790771D01*
X116541190Y-69790771D02*
X116684047Y-69790771D01*
X116684047Y-69790771D02*
X116779285Y-69838390D01*
X116779285Y-69838390D02*
X116826904Y-69886009D01*
X116826904Y-69886009D02*
X116874523Y-69981247D01*
X116874523Y-69981247D02*
X116874523Y-70219342D01*
X116874523Y-70219342D02*
X116826904Y-70314580D01*
X116826904Y-70314580D02*
X116779285Y-70362200D01*
X116779285Y-70362200D02*
X116684047Y-70409819D01*
X116684047Y-70409819D02*
X116398333Y-70409819D01*
X116398333Y-70409819D02*
X116303095Y-70362200D01*
X116303095Y-70362200D02*
X116255476Y-70314580D01*
X91916667Y-88807200D02*
X92059524Y-88854819D01*
X92059524Y-88854819D02*
X92297619Y-88854819D01*
X92297619Y-88854819D02*
X92392857Y-88807200D01*
X92392857Y-88807200D02*
X92440476Y-88759580D01*
X92440476Y-88759580D02*
X92488095Y-88664342D01*
X92488095Y-88664342D02*
X92488095Y-88569104D01*
X92488095Y-88569104D02*
X92440476Y-88473866D01*
X92440476Y-88473866D02*
X92392857Y-88426247D01*
X92392857Y-88426247D02*
X92297619Y-88378628D01*
X92297619Y-88378628D02*
X92107143Y-88331009D01*
X92107143Y-88331009D02*
X92011905Y-88283390D01*
X92011905Y-88283390D02*
X91964286Y-88235771D01*
X91964286Y-88235771D02*
X91916667Y-88140533D01*
X91916667Y-88140533D02*
X91916667Y-88045295D01*
X91916667Y-88045295D02*
X91964286Y-87950057D01*
X91964286Y-87950057D02*
X92011905Y-87902438D01*
X92011905Y-87902438D02*
X92107143Y-87854819D01*
X92107143Y-87854819D02*
X92345238Y-87854819D01*
X92345238Y-87854819D02*
X92488095Y-87902438D01*
X92821429Y-87854819D02*
X93059524Y-88854819D01*
X93059524Y-88854819D02*
X93250000Y-88140533D01*
X93250000Y-88140533D02*
X93440476Y-88854819D01*
X93440476Y-88854819D02*
X93678572Y-87854819D01*
X94011905Y-87950057D02*
X94059524Y-87902438D01*
X94059524Y-87902438D02*
X94154762Y-87854819D01*
X94154762Y-87854819D02*
X94392857Y-87854819D01*
X94392857Y-87854819D02*
X94488095Y-87902438D01*
X94488095Y-87902438D02*
X94535714Y-87950057D01*
X94535714Y-87950057D02*
X94583333Y-88045295D01*
X94583333Y-88045295D02*
X94583333Y-88140533D01*
X94583333Y-88140533D02*
X94535714Y-88283390D01*
X94535714Y-88283390D02*
X93964286Y-88854819D01*
X93964286Y-88854819D02*
X94583333Y-88854819D01*
X81666667Y-88807200D02*
X81809524Y-88854819D01*
X81809524Y-88854819D02*
X82047619Y-88854819D01*
X82047619Y-88854819D02*
X82142857Y-88807200D01*
X82142857Y-88807200D02*
X82190476Y-88759580D01*
X82190476Y-88759580D02*
X82238095Y-88664342D01*
X82238095Y-88664342D02*
X82238095Y-88569104D01*
X82238095Y-88569104D02*
X82190476Y-88473866D01*
X82190476Y-88473866D02*
X82142857Y-88426247D01*
X82142857Y-88426247D02*
X82047619Y-88378628D01*
X82047619Y-88378628D02*
X81857143Y-88331009D01*
X81857143Y-88331009D02*
X81761905Y-88283390D01*
X81761905Y-88283390D02*
X81714286Y-88235771D01*
X81714286Y-88235771D02*
X81666667Y-88140533D01*
X81666667Y-88140533D02*
X81666667Y-88045295D01*
X81666667Y-88045295D02*
X81714286Y-87950057D01*
X81714286Y-87950057D02*
X81761905Y-87902438D01*
X81761905Y-87902438D02*
X81857143Y-87854819D01*
X81857143Y-87854819D02*
X82095238Y-87854819D01*
X82095238Y-87854819D02*
X82238095Y-87902438D01*
X82571429Y-87854819D02*
X82809524Y-88854819D01*
X82809524Y-88854819D02*
X83000000Y-88140533D01*
X83000000Y-88140533D02*
X83190476Y-88854819D01*
X83190476Y-88854819D02*
X83428572Y-87854819D01*
X84333333Y-88854819D02*
X83761905Y-88854819D01*
X84047619Y-88854819D02*
X84047619Y-87854819D01*
X84047619Y-87854819D02*
X83952381Y-87997676D01*
X83952381Y-87997676D02*
X83857143Y-88092914D01*
X83857143Y-88092914D02*
X83761905Y-88140533D01*
X113107142Y-69024819D02*
X112773809Y-68548628D01*
X112535714Y-69024819D02*
X112535714Y-68024819D01*
X112535714Y-68024819D02*
X112916666Y-68024819D01*
X112916666Y-68024819D02*
X113011904Y-68072438D01*
X113011904Y-68072438D02*
X113059523Y-68120057D01*
X113059523Y-68120057D02*
X113107142Y-68215295D01*
X113107142Y-68215295D02*
X113107142Y-68358152D01*
X113107142Y-68358152D02*
X113059523Y-68453390D01*
X113059523Y-68453390D02*
X113011904Y-68501009D01*
X113011904Y-68501009D02*
X112916666Y-68548628D01*
X112916666Y-68548628D02*
X112535714Y-68548628D01*
X114059523Y-69024819D02*
X113488095Y-69024819D01*
X113773809Y-69024819D02*
X113773809Y-68024819D01*
X113773809Y-68024819D02*
X113678571Y-68167676D01*
X113678571Y-68167676D02*
X113583333Y-68262914D01*
X113583333Y-68262914D02*
X113488095Y-68310533D01*
X114678571Y-68024819D02*
X114773809Y-68024819D01*
X114773809Y-68024819D02*
X114869047Y-68072438D01*
X114869047Y-68072438D02*
X114916666Y-68120057D01*
X114916666Y-68120057D02*
X114964285Y-68215295D01*
X114964285Y-68215295D02*
X115011904Y-68405771D01*
X115011904Y-68405771D02*
X115011904Y-68643866D01*
X115011904Y-68643866D02*
X114964285Y-68834342D01*
X114964285Y-68834342D02*
X114916666Y-68929580D01*
X114916666Y-68929580D02*
X114869047Y-68977200D01*
X114869047Y-68977200D02*
X114773809Y-69024819D01*
X114773809Y-69024819D02*
X114678571Y-69024819D01*
X114678571Y-69024819D02*
X114583333Y-68977200D01*
X114583333Y-68977200D02*
X114535714Y-68929580D01*
X114535714Y-68929580D02*
X114488095Y-68834342D01*
X114488095Y-68834342D02*
X114440476Y-68643866D01*
X114440476Y-68643866D02*
X114440476Y-68405771D01*
X114440476Y-68405771D02*
X114488095Y-68215295D01*
X114488095Y-68215295D02*
X114535714Y-68120057D01*
X114535714Y-68120057D02*
X114583333Y-68072438D01*
X114583333Y-68072438D02*
X114678571Y-68024819D01*
X114908333Y-46774819D02*
X114575000Y-46298628D01*
X114336905Y-46774819D02*
X114336905Y-45774819D01*
X114336905Y-45774819D02*
X114717857Y-45774819D01*
X114717857Y-45774819D02*
X114813095Y-45822438D01*
X114813095Y-45822438D02*
X114860714Y-45870057D01*
X114860714Y-45870057D02*
X114908333Y-45965295D01*
X114908333Y-45965295D02*
X114908333Y-46108152D01*
X114908333Y-46108152D02*
X114860714Y-46203390D01*
X114860714Y-46203390D02*
X114813095Y-46251009D01*
X114813095Y-46251009D02*
X114717857Y-46298628D01*
X114717857Y-46298628D02*
X114336905Y-46298628D01*
X115384524Y-46774819D02*
X115575000Y-46774819D01*
X115575000Y-46774819D02*
X115670238Y-46727200D01*
X115670238Y-46727200D02*
X115717857Y-46679580D01*
X115717857Y-46679580D02*
X115813095Y-46536723D01*
X115813095Y-46536723D02*
X115860714Y-46346247D01*
X115860714Y-46346247D02*
X115860714Y-45965295D01*
X115860714Y-45965295D02*
X115813095Y-45870057D01*
X115813095Y-45870057D02*
X115765476Y-45822438D01*
X115765476Y-45822438D02*
X115670238Y-45774819D01*
X115670238Y-45774819D02*
X115479762Y-45774819D01*
X115479762Y-45774819D02*
X115384524Y-45822438D01*
X115384524Y-45822438D02*
X115336905Y-45870057D01*
X115336905Y-45870057D02*
X115289286Y-45965295D01*
X115289286Y-45965295D02*
X115289286Y-46203390D01*
X115289286Y-46203390D02*
X115336905Y-46298628D01*
X115336905Y-46298628D02*
X115384524Y-46346247D01*
X115384524Y-46346247D02*
X115479762Y-46393866D01*
X115479762Y-46393866D02*
X115670238Y-46393866D01*
X115670238Y-46393866D02*
X115765476Y-46346247D01*
X115765476Y-46346247D02*
X115813095Y-46298628D01*
X115813095Y-46298628D02*
X115860714Y-46203390D01*
X100192591Y-46678293D02*
X99620172Y-46577278D01*
X99788530Y-47082354D02*
X99081424Y-46375247D01*
X99081424Y-46375247D02*
X99350798Y-46105873D01*
X99350798Y-46105873D02*
X99451813Y-46072201D01*
X99451813Y-46072201D02*
X99519156Y-46072201D01*
X99519156Y-46072201D02*
X99620172Y-46105873D01*
X99620172Y-46105873D02*
X99721187Y-46206888D01*
X99721187Y-46206888D02*
X99754859Y-46307904D01*
X99754859Y-46307904D02*
X99754859Y-46375247D01*
X99754859Y-46375247D02*
X99721187Y-46476262D01*
X99721187Y-46476262D02*
X99451813Y-46745636D01*
X100192591Y-45870171D02*
X100091576Y-45903843D01*
X100091576Y-45903843D02*
X100024233Y-45903843D01*
X100024233Y-45903843D02*
X99923217Y-45870171D01*
X99923217Y-45870171D02*
X99889546Y-45836499D01*
X99889546Y-45836499D02*
X99855874Y-45735484D01*
X99855874Y-45735484D02*
X99855874Y-45668140D01*
X99855874Y-45668140D02*
X99889546Y-45567125D01*
X99889546Y-45567125D02*
X100024233Y-45432438D01*
X100024233Y-45432438D02*
X100125248Y-45398766D01*
X100125248Y-45398766D02*
X100192591Y-45398766D01*
X100192591Y-45398766D02*
X100293607Y-45432438D01*
X100293607Y-45432438D02*
X100327278Y-45466110D01*
X100327278Y-45466110D02*
X100360950Y-45567125D01*
X100360950Y-45567125D02*
X100360950Y-45634469D01*
X100360950Y-45634469D02*
X100327278Y-45735484D01*
X100327278Y-45735484D02*
X100192591Y-45870171D01*
X100192591Y-45870171D02*
X100158920Y-45971186D01*
X100158920Y-45971186D02*
X100158920Y-46038530D01*
X100158920Y-46038530D02*
X100192591Y-46139545D01*
X100192591Y-46139545D02*
X100327278Y-46274232D01*
X100327278Y-46274232D02*
X100428294Y-46307904D01*
X100428294Y-46307904D02*
X100495637Y-46307904D01*
X100495637Y-46307904D02*
X100596652Y-46274232D01*
X100596652Y-46274232D02*
X100731339Y-46139545D01*
X100731339Y-46139545D02*
X100765011Y-46038530D01*
X100765011Y-46038530D02*
X100765011Y-45971186D01*
X100765011Y-45971186D02*
X100731339Y-45870171D01*
X100731339Y-45870171D02*
X100596652Y-45735484D01*
X100596652Y-45735484D02*
X100495637Y-45701812D01*
X100495637Y-45701812D02*
X100428294Y-45701812D01*
X100428294Y-45701812D02*
X100327278Y-45735484D01*
X101384819Y-71341666D02*
X100908628Y-71674999D01*
X101384819Y-71913094D02*
X100384819Y-71913094D01*
X100384819Y-71913094D02*
X100384819Y-71532142D01*
X100384819Y-71532142D02*
X100432438Y-71436904D01*
X100432438Y-71436904D02*
X100480057Y-71389285D01*
X100480057Y-71389285D02*
X100575295Y-71341666D01*
X100575295Y-71341666D02*
X100718152Y-71341666D01*
X100718152Y-71341666D02*
X100813390Y-71389285D01*
X100813390Y-71389285D02*
X100861009Y-71436904D01*
X100861009Y-71436904D02*
X100908628Y-71532142D01*
X100908628Y-71532142D02*
X100908628Y-71913094D01*
X100384819Y-71008332D02*
X100384819Y-70341666D01*
X100384819Y-70341666D02*
X101384819Y-70770237D01*
X121758333Y-43634819D02*
X121425000Y-43158628D01*
X121186905Y-43634819D02*
X121186905Y-42634819D01*
X121186905Y-42634819D02*
X121567857Y-42634819D01*
X121567857Y-42634819D02*
X121663095Y-42682438D01*
X121663095Y-42682438D02*
X121710714Y-42730057D01*
X121710714Y-42730057D02*
X121758333Y-42825295D01*
X121758333Y-42825295D02*
X121758333Y-42968152D01*
X121758333Y-42968152D02*
X121710714Y-43063390D01*
X121710714Y-43063390D02*
X121663095Y-43111009D01*
X121663095Y-43111009D02*
X121567857Y-43158628D01*
X121567857Y-43158628D02*
X121186905Y-43158628D01*
X122139286Y-42730057D02*
X122186905Y-42682438D01*
X122186905Y-42682438D02*
X122282143Y-42634819D01*
X122282143Y-42634819D02*
X122520238Y-42634819D01*
X122520238Y-42634819D02*
X122615476Y-42682438D01*
X122615476Y-42682438D02*
X122663095Y-42730057D01*
X122663095Y-42730057D02*
X122710714Y-42825295D01*
X122710714Y-42825295D02*
X122710714Y-42920533D01*
X122710714Y-42920533D02*
X122663095Y-43063390D01*
X122663095Y-43063390D02*
X122091667Y-43634819D01*
X122091667Y-43634819D02*
X122710714Y-43634819D01*
X128634819Y-43666666D02*
X128158628Y-43999999D01*
X128634819Y-44238094D02*
X127634819Y-44238094D01*
X127634819Y-44238094D02*
X127634819Y-43857142D01*
X127634819Y-43857142D02*
X127682438Y-43761904D01*
X127682438Y-43761904D02*
X127730057Y-43714285D01*
X127730057Y-43714285D02*
X127825295Y-43666666D01*
X127825295Y-43666666D02*
X127968152Y-43666666D01*
X127968152Y-43666666D02*
X128063390Y-43714285D01*
X128063390Y-43714285D02*
X128111009Y-43761904D01*
X128111009Y-43761904D02*
X128158628Y-43857142D01*
X128158628Y-43857142D02*
X128158628Y-44238094D01*
X128634819Y-42714285D02*
X128634819Y-43285713D01*
X128634819Y-42999999D02*
X127634819Y-42999999D01*
X127634819Y-42999999D02*
X127777676Y-43095237D01*
X127777676Y-43095237D02*
X127872914Y-43190475D01*
X127872914Y-43190475D02*
X127920533Y-43285713D01*
X135954819Y-71583333D02*
X136669104Y-71583333D01*
X136669104Y-71583333D02*
X136811961Y-71630952D01*
X136811961Y-71630952D02*
X136907200Y-71726190D01*
X136907200Y-71726190D02*
X136954819Y-71869047D01*
X136954819Y-71869047D02*
X136954819Y-71964285D01*
X136050057Y-71154761D02*
X136002438Y-71107142D01*
X136002438Y-71107142D02*
X135954819Y-71011904D01*
X135954819Y-71011904D02*
X135954819Y-70773809D01*
X135954819Y-70773809D02*
X136002438Y-70678571D01*
X136002438Y-70678571D02*
X136050057Y-70630952D01*
X136050057Y-70630952D02*
X136145295Y-70583333D01*
X136145295Y-70583333D02*
X136240533Y-70583333D01*
X136240533Y-70583333D02*
X136383390Y-70630952D01*
X136383390Y-70630952D02*
X136954819Y-71202380D01*
X136954819Y-71202380D02*
X136954819Y-70583333D01*
X129166666Y-50431009D02*
X128833333Y-50431009D01*
X128833333Y-50954819D02*
X128833333Y-49954819D01*
X128833333Y-49954819D02*
X129309523Y-49954819D01*
X130214285Y-50954819D02*
X129642857Y-50954819D01*
X129928571Y-50954819D02*
X129928571Y-49954819D01*
X129928571Y-49954819D02*
X129833333Y-50097676D01*
X129833333Y-50097676D02*
X129738095Y-50192914D01*
X129738095Y-50192914D02*
X129642857Y-50240533D01*
X118698472Y-33184173D02*
X118698472Y-33251517D01*
X118698472Y-33251517D02*
X118631128Y-33386204D01*
X118631128Y-33386204D02*
X118563785Y-33453547D01*
X118563785Y-33453547D02*
X118429098Y-33520891D01*
X118429098Y-33520891D02*
X118294411Y-33520891D01*
X118294411Y-33520891D02*
X118193396Y-33487219D01*
X118193396Y-33487219D02*
X118025037Y-33386204D01*
X118025037Y-33386204D02*
X117924022Y-33285189D01*
X117924022Y-33285189D02*
X117823006Y-33116830D01*
X117823006Y-33116830D02*
X117789335Y-33015815D01*
X117789335Y-33015815D02*
X117789335Y-32881128D01*
X117789335Y-32881128D02*
X117856678Y-32746441D01*
X117856678Y-32746441D02*
X117924022Y-32679097D01*
X117924022Y-32679097D02*
X118058709Y-32611754D01*
X118058709Y-32611754D02*
X118126052Y-32611754D01*
X118294411Y-32308708D02*
X118765815Y-31837303D01*
X118765815Y-31837303D02*
X119169876Y-32847456D01*
X118824350Y-45560051D02*
X118824350Y-45627395D01*
X118824350Y-45627395D02*
X118757006Y-45762082D01*
X118757006Y-45762082D02*
X118689663Y-45829425D01*
X118689663Y-45829425D02*
X118554976Y-45896769D01*
X118554976Y-45896769D02*
X118420289Y-45896769D01*
X118420289Y-45896769D02*
X118319274Y-45863097D01*
X118319274Y-45863097D02*
X118150915Y-45762082D01*
X118150915Y-45762082D02*
X118049900Y-45661067D01*
X118049900Y-45661067D02*
X117948884Y-45492708D01*
X117948884Y-45492708D02*
X117915213Y-45391693D01*
X117915213Y-45391693D02*
X117915213Y-45257006D01*
X117915213Y-45257006D02*
X117982556Y-45122319D01*
X117982556Y-45122319D02*
X118049900Y-45054975D01*
X118049900Y-45054975D02*
X118184587Y-44987632D01*
X118184587Y-44987632D02*
X118251930Y-44987632D01*
X119026380Y-44549899D02*
X119497785Y-45021303D01*
X118588648Y-44448884D02*
X118925365Y-45122319D01*
X118925365Y-45122319D02*
X119363098Y-44684586D01*
X112783333Y-33179580D02*
X112735714Y-33227200D01*
X112735714Y-33227200D02*
X112592857Y-33274819D01*
X112592857Y-33274819D02*
X112497619Y-33274819D01*
X112497619Y-33274819D02*
X112354762Y-33227200D01*
X112354762Y-33227200D02*
X112259524Y-33131961D01*
X112259524Y-33131961D02*
X112211905Y-33036723D01*
X112211905Y-33036723D02*
X112164286Y-32846247D01*
X112164286Y-32846247D02*
X112164286Y-32703390D01*
X112164286Y-32703390D02*
X112211905Y-32512914D01*
X112211905Y-32512914D02*
X112259524Y-32417676D01*
X112259524Y-32417676D02*
X112354762Y-32322438D01*
X112354762Y-32322438D02*
X112497619Y-32274819D01*
X112497619Y-32274819D02*
X112592857Y-32274819D01*
X112592857Y-32274819D02*
X112735714Y-32322438D01*
X112735714Y-32322438D02*
X112783333Y-32370057D01*
X113116667Y-32274819D02*
X113735714Y-32274819D01*
X113735714Y-32274819D02*
X113402381Y-32655771D01*
X113402381Y-32655771D02*
X113545238Y-32655771D01*
X113545238Y-32655771D02*
X113640476Y-32703390D01*
X113640476Y-32703390D02*
X113688095Y-32751009D01*
X113688095Y-32751009D02*
X113735714Y-32846247D01*
X113735714Y-32846247D02*
X113735714Y-33084342D01*
X113735714Y-33084342D02*
X113688095Y-33179580D01*
X113688095Y-33179580D02*
X113640476Y-33227200D01*
X113640476Y-33227200D02*
X113545238Y-33274819D01*
X113545238Y-33274819D02*
X113259524Y-33274819D01*
X113259524Y-33274819D02*
X113164286Y-33227200D01*
X113164286Y-33227200D02*
X113116667Y-33179580D01*
X138881009Y-62410714D02*
X138928628Y-62267857D01*
X138928628Y-62267857D02*
X138976247Y-62220238D01*
X138976247Y-62220238D02*
X139071485Y-62172619D01*
X139071485Y-62172619D02*
X139214342Y-62172619D01*
X139214342Y-62172619D02*
X139309580Y-62220238D01*
X139309580Y-62220238D02*
X139357200Y-62267857D01*
X139357200Y-62267857D02*
X139404819Y-62363095D01*
X139404819Y-62363095D02*
X139404819Y-62744047D01*
X139404819Y-62744047D02*
X138404819Y-62744047D01*
X138404819Y-62744047D02*
X138404819Y-62410714D01*
X138404819Y-62410714D02*
X138452438Y-62315476D01*
X138452438Y-62315476D02*
X138500057Y-62267857D01*
X138500057Y-62267857D02*
X138595295Y-62220238D01*
X138595295Y-62220238D02*
X138690533Y-62220238D01*
X138690533Y-62220238D02*
X138785771Y-62267857D01*
X138785771Y-62267857D02*
X138833390Y-62315476D01*
X138833390Y-62315476D02*
X138881009Y-62410714D01*
X138881009Y-62410714D02*
X138881009Y-62744047D01*
X138404819Y-61886904D02*
X138404819Y-61315476D01*
X139404819Y-61601190D02*
X138404819Y-61601190D01*
X139404819Y-60458333D02*
X139404819Y-61029761D01*
X139404819Y-60744047D02*
X138404819Y-60744047D01*
X138404819Y-60744047D02*
X138547676Y-60839285D01*
X138547676Y-60839285D02*
X138642914Y-60934523D01*
X138642914Y-60934523D02*
X138690533Y-61029761D01*
X121968766Y-48756467D02*
X121593812Y-48756467D01*
X121593812Y-48756467D02*
X121593812Y-47969065D01*
X122643682Y-48756467D02*
X122193738Y-48756467D01*
X122418710Y-48756467D02*
X122418710Y-47969065D01*
X122418710Y-47969065D02*
X122343719Y-48081551D01*
X122343719Y-48081551D02*
X122268729Y-48156542D01*
X122268729Y-48156542D02*
X122193738Y-48194037D01*
X117574350Y-37310051D02*
X117574350Y-37377395D01*
X117574350Y-37377395D02*
X117507006Y-37512082D01*
X117507006Y-37512082D02*
X117439663Y-37579425D01*
X117439663Y-37579425D02*
X117304976Y-37646769D01*
X117304976Y-37646769D02*
X117170289Y-37646769D01*
X117170289Y-37646769D02*
X117069274Y-37613097D01*
X117069274Y-37613097D02*
X116900915Y-37512082D01*
X116900915Y-37512082D02*
X116799900Y-37411067D01*
X116799900Y-37411067D02*
X116698884Y-37242708D01*
X116698884Y-37242708D02*
X116665213Y-37141693D01*
X116665213Y-37141693D02*
X116665213Y-37007006D01*
X116665213Y-37007006D02*
X116732556Y-36872319D01*
X116732556Y-36872319D02*
X116799900Y-36804975D01*
X116799900Y-36804975D02*
X116934587Y-36737632D01*
X116934587Y-36737632D02*
X117001930Y-36737632D01*
X117574350Y-36030525D02*
X117237632Y-36367242D01*
X117237632Y-36367242D02*
X117540678Y-36737632D01*
X117540678Y-36737632D02*
X117540678Y-36670288D01*
X117540678Y-36670288D02*
X117574350Y-36569273D01*
X117574350Y-36569273D02*
X117742709Y-36400914D01*
X117742709Y-36400914D02*
X117843724Y-36367242D01*
X117843724Y-36367242D02*
X117911067Y-36367242D01*
X117911067Y-36367242D02*
X118012083Y-36400914D01*
X118012083Y-36400914D02*
X118180441Y-36569273D01*
X118180441Y-36569273D02*
X118214113Y-36670288D01*
X118214113Y-36670288D02*
X118214113Y-36737632D01*
X118214113Y-36737632D02*
X118180441Y-36838647D01*
X118180441Y-36838647D02*
X118012083Y-37007006D01*
X118012083Y-37007006D02*
X117911067Y-37040677D01*
X117911067Y-37040677D02*
X117843724Y-37040677D01*
%TO.C,C6*%
D13*
X113834420Y-45010000D02*
X114115580Y-45010000D01*
X113834420Y-43990000D02*
X114115580Y-43990000D01*
%TO.C,C2*%
X119710030Y-47988781D02*
X119511219Y-47789970D01*
X118988781Y-48710030D02*
X118789970Y-48511219D01*
%TO.C,D2*%
X113045962Y-72164591D02*
X111430223Y-73780330D01*
X112469670Y-74819777D02*
X114085409Y-73204038D01*
X111430223Y-73780330D02*
X112469670Y-74819777D01*
%TO.C,C11*%
X106384420Y-79010000D02*
X106665580Y-79010000D01*
X106384420Y-77990000D02*
X106665580Y-77990000D01*
%TO.C,C16*%
X106384420Y-74240000D02*
X106665580Y-74240000D01*
X106384420Y-75260000D02*
X106665580Y-75260000D01*
%TO.C,R5*%
X102701697Y-74537230D02*
X103037230Y-74201697D01*
X101962770Y-73798303D02*
X102298303Y-73462770D01*
%TO.C,C12*%
X103261219Y-42960030D02*
X103460030Y-42761219D01*
X102539970Y-42238781D02*
X102738781Y-42039970D01*
%TO.C,C13*%
X108295543Y-41834990D02*
X108665010Y-42204457D01*
X109334990Y-40795543D02*
X109704457Y-41165010D01*
%TO.C,C10*%
X101665010Y-76295543D02*
X101295543Y-76665010D01*
X102704457Y-77334990D02*
X102334990Y-77704457D01*
%TO.C,C14*%
X131688748Y-54235000D02*
X132211252Y-54235000D01*
X131688748Y-52765000D02*
X132211252Y-52765000D01*
%TO.C,R6*%
X100337742Y-90522500D02*
X100812258Y-90522500D01*
X100337742Y-89477500D02*
X100812258Y-89477500D01*
%TO.C,C15*%
X105761219Y-40210030D02*
X105960030Y-40011219D01*
X105039970Y-39488781D02*
X105238781Y-39289970D01*
%TO.C,J3*%
D14*
X104775000Y-90100000D02*
X104775000Y-85950000D01*
X104775000Y-93800000D02*
X104774999Y-91800000D01*
D11*
X107682000Y-83449000D02*
G75*
G02*
X107482000Y-83449000I-100000J0D01*
G01*
X107482000Y-83449000D02*
G75*
G02*
X107682000Y-83449000I100000J0D01*
G01*
D14*
X109811000Y-95950000D02*
X113163000Y-95950000D01*
X104775000Y-95950000D02*
X104775000Y-95460999D01*
X107194000Y-95950000D02*
X104775000Y-95950000D01*
X116725000Y-95950000D02*
X116725000Y-86444001D01*
X115753000Y-95950000D02*
X116725000Y-95950000D01*
%TO.C,R11*%
D13*
X103762742Y-69727500D02*
X104237258Y-69727500D01*
X103762742Y-70772500D02*
X104237258Y-70772500D01*
%TO.C,Q2*%
X110052500Y-45690000D02*
X111572500Y-45690000D01*
X110052500Y-45740000D02*
X110052500Y-45690000D01*
X110052500Y-47640000D02*
X110052500Y-46860000D01*
X110052500Y-48810000D02*
X110052500Y-48760000D01*
X111572500Y-45690000D02*
X111572500Y-46690000D01*
X111572500Y-47810000D02*
X111572500Y-48810000D01*
X111572500Y-48810000D02*
X110052500Y-48810000D01*
X109512500Y-46870000D02*
X109752500Y-47200000D01*
X109272500Y-47200000D01*
X109512500Y-46870000D01*
G36*
X109752500Y-47200000D02*
G01*
X109272500Y-47200000D01*
X109512500Y-46870000D01*
X109752500Y-47200000D01*
G37*
%TO.C,Q1*%
X110890866Y-40097039D02*
X109816063Y-39022236D01*
X110926221Y-40061683D02*
X110890866Y-40097039D01*
X112269724Y-38718181D02*
X111718181Y-39269724D01*
X113097039Y-37890866D02*
X113061683Y-37926221D01*
X109816063Y-39022236D02*
X110523170Y-38315130D01*
X111315130Y-37523170D02*
X112022236Y-36816063D01*
X112022236Y-36816063D02*
X113097039Y-37890866D01*
X112107089Y-39644490D02*
X112170729Y-39241440D01*
X112510140Y-39580851D01*
X112107089Y-39644490D01*
G36*
X112510140Y-39580851D02*
G01*
X112107089Y-39644490D01*
X112170729Y-39241440D01*
X112510140Y-39580851D01*
G37*
%TO.C,U2*%
X117410000Y-41936884D02*
X117091802Y-41618686D01*
X117728198Y-41618686D02*
X117410000Y-41936884D01*
X119686884Y-39660000D02*
X119368686Y-39978198D01*
X119368686Y-39341802D02*
X119686884Y-39660000D01*
X115451314Y-39978198D02*
X115133116Y-39660000D01*
X115133116Y-39660000D02*
X115451314Y-39341802D01*
X117091802Y-37701314D02*
X117410000Y-37383116D01*
X117410000Y-37383116D02*
X117728198Y-37701314D01*
X118357523Y-41738894D02*
X118760574Y-41802534D01*
X118421163Y-42141945D01*
X118357523Y-41738894D01*
G36*
X118760574Y-41802534D02*
G01*
X118421163Y-42141945D01*
X118357523Y-41738894D01*
X118760574Y-41802534D01*
G37*
%TO.C,C1*%
X126735000Y-48261253D02*
X126735000Y-47738747D01*
X125265000Y-48261253D02*
X125265000Y-47738747D01*
%TO.C,R4*%
X119212770Y-37701697D02*
X119548303Y-38037230D01*
X119951697Y-36962770D02*
X120287230Y-37298303D01*
%TO.C,R3*%
X118701697Y-46287230D02*
X119037230Y-45951697D01*
X117962770Y-45548303D02*
X118298303Y-45212770D01*
%TO.C,D1*%
X129257500Y-45400000D02*
X129587500Y-45160000D01*
X129587500Y-45640000D01*
X129257500Y-45400000D01*
G36*
X129587500Y-45640000D02*
G01*
X129257500Y-45400000D01*
X129587500Y-45160000D01*
X129587500Y-45640000D01*
G37*
X131197500Y-43040000D02*
X131197500Y-44860000D01*
X130197500Y-43040000D02*
X131197500Y-43040000D01*
X128077500Y-43040000D02*
X129077500Y-43040000D01*
X131197500Y-44860000D02*
X131147500Y-44860000D01*
X130027500Y-44860000D02*
X129247500Y-44860000D01*
X128127500Y-44860000D02*
X128077500Y-44860000D01*
X128077500Y-44860000D02*
X128077500Y-43040000D01*
%TO.C,J1*%
X131700000Y-37150000D02*
X131700000Y-35150000D01*
X131699999Y-33250000D02*
X131699999Y-31350000D01*
X131699999Y-31350000D02*
X122300001Y-31350000D01*
X122300000Y-37150000D02*
X122300000Y-35150000D01*
X122300001Y-33250000D02*
X122300001Y-31350000D01*
%TO.C,U1*%
D15*
X121175001Y-51750001D02*
X121349999Y-51750001D01*
X123150001Y-51750001D02*
X123324999Y-51750001D01*
X123150001Y-49450001D02*
X123324999Y-49450001D01*
X121175001Y-49450001D02*
X121825000Y-49450001D01*
%TO.C,U6*%
D13*
X129710000Y-66565000D02*
X121990000Y-66565000D01*
X129710000Y-66310000D02*
X129710000Y-66565000D01*
X129710000Y-56045000D02*
X129710000Y-56300000D01*
X121990000Y-66565000D02*
X121990000Y-66310000D01*
X121990000Y-56300000D02*
X121990000Y-56045000D01*
X121990000Y-56045000D02*
X129710000Y-56045000D01*
X130500001Y-66315000D02*
X130840000Y-66785000D01*
X130160000Y-66785000D01*
X130500001Y-66315000D01*
G36*
X130840000Y-66785000D02*
G01*
X130160000Y-66785000D01*
X130500001Y-66315000D01*
X130840000Y-66785000D01*
G37*
%TO.C,U5*%
D14*
X108367229Y-42985858D02*
X107264142Y-41882771D01*
X106132771Y-43014142D02*
X107235858Y-44117229D01*
D11*
X108481371Y-44838478D02*
G75*
G02*
X108281371Y-44838478I-100000J0D01*
G01*
X108281371Y-44838478D02*
G75*
G02*
X108481371Y-44838478I100000J0D01*
G01*
%TO.C,U4*%
D16*
X104675000Y-47684188D02*
X104568934Y-47578122D01*
X104682071Y-47691259D02*
X104788137Y-47585193D01*
X104568934Y-43971878D02*
X104675000Y-43865812D01*
X104675000Y-43865812D02*
X104781066Y-43971878D01*
X106584188Y-45775000D02*
X106478122Y-45881066D01*
X106584188Y-45775000D02*
X106478122Y-45668934D01*
D13*
X102765812Y-45775000D02*
X102511253Y-46029558D01*
X102511253Y-45520442D01*
X102765812Y-45775000D01*
G36*
X102765812Y-45775000D02*
G01*
X102511253Y-46029558D01*
X102511253Y-45520442D01*
X102765812Y-45775000D01*
G37*
%TO.C,U3*%
X91775000Y-68465000D02*
X97935000Y-68465000D01*
X91775000Y-68465000D02*
X91775000Y-50225000D01*
X116735000Y-68465000D02*
X117515000Y-68465000D01*
X117515000Y-68465000D02*
X117515000Y-67465000D01*
X91775000Y-50225000D02*
X98190000Y-50225000D01*
X116735000Y-50225000D02*
X117515000Y-50225000D01*
X117515000Y-50225000D02*
X117515000Y-51225000D01*
X98660000Y-68470000D02*
X98660000Y-68970000D01*
X98160000Y-68470000D01*
X98660000Y-68470000D01*
G36*
X98660000Y-68970000D02*
G01*
X98160000Y-68470000D01*
X98660000Y-68470000D01*
X98660000Y-68970000D01*
G37*
%TO.C,SW2*%
X90530000Y-93040000D02*
X90530000Y-90960000D01*
X91800000Y-89280000D02*
X91310000Y-89770000D01*
X91800000Y-89280000D02*
X94700000Y-89280000D01*
X91800000Y-94720000D02*
X91310000Y-94230000D01*
X91800000Y-94720000D02*
X94700000Y-94720000D01*
X94700000Y-89280000D02*
X95190000Y-89770000D01*
X94700000Y-94720000D02*
X95190000Y-94230000D01*
X95970000Y-93040000D02*
X95970000Y-90960000D01*
%TO.C,SW1*%
X80280000Y-93040000D02*
X80280000Y-90960000D01*
X81550000Y-89280000D02*
X81060000Y-89770000D01*
X81550000Y-89280000D02*
X84450000Y-89280000D01*
X81550000Y-94720000D02*
X81060000Y-94230000D01*
X81550000Y-94720000D02*
X84450000Y-94720000D01*
X84450000Y-89280000D02*
X84940000Y-89770000D01*
X84450000Y-94720000D02*
X84940000Y-94230000D01*
X85720000Y-93040000D02*
X85720000Y-90960000D01*
%TO.C,R10*%
X113512742Y-69477500D02*
X113987258Y-69477500D01*
X113512742Y-70522500D02*
X113987258Y-70522500D01*
%TO.C,R9*%
X114837742Y-47227500D02*
X115312258Y-47227500D01*
X114837742Y-48272500D02*
X115312258Y-48272500D01*
%TO.C,R8*%
X100462770Y-47048303D02*
X100798303Y-46712770D01*
X101201697Y-47787230D02*
X101537230Y-47451697D01*
%TO.C,R7*%
X100022500Y-70937742D02*
X100022500Y-71412258D01*
X98977500Y-70937742D02*
X98977500Y-71412258D01*
%TO.C,R2*%
X122162258Y-42272500D02*
X121687742Y-42272500D01*
X122162258Y-41227500D02*
X121687742Y-41227500D01*
%TO.C,R1*%
X127272500Y-43262742D02*
X127272500Y-43737258D01*
X126227500Y-43262742D02*
X126227500Y-43737258D01*
%TO.C,J2*%
X137500000Y-72630000D02*
X137500001Y-71250000D01*
X138880000Y-72629999D02*
X137500000Y-72630000D01*
X140150000Y-72630000D02*
X147880000Y-72629999D01*
X140150000Y-72630000D02*
X140150000Y-69870000D01*
X147880000Y-72629999D02*
X147880000Y-69870001D01*
X140150000Y-69870000D02*
X147880000Y-69870001D01*
%TO.C,F1*%
X129147936Y-47590000D02*
X130352064Y-47590000D01*
X129147936Y-49410000D02*
X130352064Y-49410000D01*
%TO.C,C7*%
X119045543Y-33665010D02*
X119415010Y-33295543D01*
X120084990Y-34704457D02*
X120454457Y-34334990D01*
%TO.C,C4*%
X118204457Y-44334990D02*
X117834990Y-44704457D01*
X117165010Y-43295543D02*
X116795543Y-43665010D01*
%TO.C,C3*%
X112688748Y-33765000D02*
X113211252Y-33765000D01*
X112688748Y-35235000D02*
X113211252Y-35235000D01*
%TO.C,BT1*%
X140400000Y-62050000D02*
X141950000Y-62050000D01*
X148100000Y-62050000D02*
X146550000Y-62050000D01*
X149250000Y-60500000D02*
X151250000Y-60500000D01*
X150250000Y-59500000D02*
X150250000Y-61500000D01*
X135899999Y-58850000D02*
X140400000Y-58850000D01*
X135899999Y-58850000D02*
X135899999Y-36150000D01*
X140400000Y-58850000D02*
X140400000Y-62050000D01*
X148100000Y-58850000D02*
X148100000Y-62050000D01*
X150799999Y-58850000D02*
X148100000Y-58850000D01*
X152600000Y-57050000D02*
X150799999Y-58850000D01*
X135899999Y-36150000D02*
X140400000Y-36150000D01*
X140400000Y-36150000D02*
X140400000Y-32950000D01*
X148100000Y-36150000D02*
X148100000Y-32950000D01*
X152600001Y-36150000D02*
X152600000Y-57050000D01*
X152600001Y-36150000D02*
X148100000Y-36150000D01*
X140400000Y-32950000D02*
X141950000Y-32950000D01*
X148100000Y-32950000D02*
X146550000Y-32950000D01*
%TO.C,L1*%
D12*
X124600000Y-47600000D02*
X120400000Y-47600000D01*
X120400000Y-43400000D02*
X120400000Y-43475000D01*
X120400000Y-47525000D02*
X120400000Y-47600000D01*
X124600000Y-43400000D02*
X120400000Y-43400000D01*
X124600000Y-43400000D02*
X124600000Y-43475000D01*
X124600000Y-47525000D02*
X124600000Y-47600000D01*
%TO.C,C5*%
D13*
X116954457Y-36084990D02*
X116584990Y-36454457D01*
X115915010Y-35045543D02*
X115545543Y-35415010D01*
%TD*%
M02*
