M48
; DRILL file KiCad 10.0.3 date 2026-07-20T23:05:47
; FORMAT={-:-/ absolute / metric / decimal}
; #@! TF.CreationDate,2026-07-20T23:05:47+05:30
; #@! TF.GenerationSoftware,Kicad,Pcbnew,10.0.3
; #@! TF.FileFunction,Plated,1,2,PTH
FMAT,2
METRIC
; #@! TA.AperFunction,Plated,PTH,ComponentDrill
T1C0.200
; #@! TA.AperFunction,Plated,PTH,ComponentDrill
T2C0.203
; #@! TA.AperFunction,Plated,PTH,ViaDrill
T3C0.300
; #@! TA.AperFunction,Plated,PTH,ComponentDrill
T4C0.600
; #@! TA.AperFunction,Plated,PTH,ComponentDrill
T5C1.000
%
G90
G05
T1
X105.2Y-59.262
X105.2Y-60.788
X105.962Y-61.55
X105.962Y-58.5
X105.962Y-60.025
X106.725Y-59.262
X106.725Y-60.787
X107.487Y-58.5
X107.487Y-60.025
X107.487Y-61.55
X108.25Y-59.262
X108.25Y-60.787
T2
X122.25Y-50.2
X122.25Y-51.0
T3
X86.75Y-95.5
X97.25Y-96.0
X98.25Y-66.0
X99.0Y-66.75
X99.25Y-48.5
X99.75Y-79.25
X100.75Y-49.0
X101.0Y-64.75
X101.25Y-72.25
X101.276Y-44.776
X101.5Y-43.75
X102.0Y-45.75
X102.0Y-79.5
X102.25Y-48.25
X103.25Y-44.5
X103.5Y-65.5
X103.75Y-47.5
X105.0Y-52.75
X105.75Y-63.25
X105.827Y-40.226
X106.0Y-69.5
X106.0Y-71.75
X106.299Y-44.799
X106.564Y-48.814
X107.0Y-76.25
X107.009Y-38.036
X107.25Y-43.0
X107.25Y-71.625
X107.75Y-79.75
X108.308Y-44.808
X108.75Y-39.25
X108.75Y-47.5
X108.945Y-56.346
X109.0Y-83.25
X110.215Y-57.616
X110.75Y-86.5
X111.049Y-58.451
X111.951Y-75.201
X112.0Y-70.425
X112.0Y-71.75
X112.25Y-49.0
X112.764Y-42.614
X113.424Y-48.076
X113.75Y-40.6
X113.75Y-86.0
X114.25Y-38.25
X114.25Y-42.75
X115.0Y-66.25
X115.25Y-63.5
X115.5Y-43.25
X115.75Y-52.5
X116.75Y-49.0
X116.945Y-45.978
X117.71Y-47.323
X118.0Y-85.25
X118.25Y-67.75
X118.75Y-41.75
X119.301Y-38.052
X119.75Y-42.5
X119.85Y-54.0
X119.85Y-66.5
X120.0Y-40.0
X120.0Y-49.5
X121.0Y-39.0
X121.0Y-40.5
X121.0Y-52.0
X121.25Y-55.25
X122.099Y-48.651
X124.0Y-51.5
X124.25Y-64.5
X126.0Y-45.25
X127.75Y-52.25
X133.0Y-65.5
X133.5Y-55.0
X140.75Y-68.5
T5
X138.88Y-71.25
X141.42Y-71.25
X143.96Y-71.25
X146.5Y-71.25
T4
X122.68Y-34.5G85X122.68Y-33.9
G05
X122.68Y-38.93G85X122.68Y-37.83
G05
X131.32Y-34.5G85X131.32Y-33.9
G05
X131.32Y-38.93G85X131.32Y-37.83
G05
M30
