%TF.GenerationSoftware,KiCad,Pcbnew,10.0.3*%
%TF.CreationDate,2026-07-20T23:05:51+05:30*%
%TF.ProjectId,Environment display,456e7669-726f-46e6-9d65-6e7420646973,rev?*%
%TF.SameCoordinates,Original*%
%TF.FileFunction,Copper,L1,Top*%
%TF.FilePolarity,Positive*%
%FSLAX46Y46*%
G04 Gerber Fmt 4.6, Leading zero omitted, Abs format (unit mm)*
G04 Created by KiCad (PCBNEW 10.0.3) date 2026-07-20 23:05:51*
%MOMM*%
%LPD*%
G01*
G04 APERTURE LIST*
G04 Aperture macros list*
%AMRoundRect*
0 Rectangle with rounded corners*
0 $1 Rounding radius*
0 $2 $3 $4 $5 $6 $7 $8 $9 X,Y pos of 4 corners*
0 Add a 4 corners polygon primitive as box body*
4,1,4,$2,$3,$4,$5,$6,$7,$8,$9,$2,$3,0*
0 Add four circle primitives for the rounded corners*
1,1,$1+$1,$2,$3*
1,1,$1+$1,$4,$5*
1,1,$1+$1,$6,$7*
1,1,$1+$1,$8,$9*
0 Add four rect primitives between the rounded corners*
20,1,$1+$1,$2,$3,$4,$5,0*
20,1,$1+$1,$4,$5,$6,$7,0*
20,1,$1+$1,$6,$7,$8,$9,0*
20,1,$1+$1,$8,$9,$2,$3,0*%
%AMRotRect*
0 Rectangle, with rotation*
0 The origin of the aperture is its center*
0 $1 length*
0 $2 width*
0 $3 Rotation angle, in degrees counterclockwise*
0 Add horizontal line*
21,1,$1,$2,0,0,$3*%
%AMFreePoly0*
4,1,5,0.725000,-1.650000,-0.725000,-1.350000,-0.725000,1.350000,0.725000,1.650000,0.725000,-1.650000,0.725000,-1.650000,$1*%
%AMFreePoly1*
4,1,5,0.725000,1.350000,0.725000,-1.350000,-0.725000,-1.650000,-0.725000,1.650000,0.725000,1.350000,0.725000,1.350000,$1*%
G04 Aperture macros list end*
%TA.AperFunction,SMDPad,CuDef*%
%ADD10RoundRect,0.225000X-0.225000X-0.250000X0.225000X-0.250000X0.225000X0.250000X-0.225000X0.250000X0*%
%TD*%
%TA.AperFunction,SMDPad,CuDef*%
%ADD11RoundRect,0.225000X0.335876X0.017678X0.017678X0.335876X-0.335876X-0.017678X-0.017678X-0.335876X0*%
%TD*%
%TA.AperFunction,SMDPad,CuDef*%
%ADD12RoundRect,0.218750X0.026517X-0.335876X0.335876X-0.026517X-0.026517X0.335876X-0.335876X0.026517X0*%
%TD*%
%TA.AperFunction,SMDPad,CuDef*%
%ADD13RoundRect,0.200000X0.053033X-0.335876X0.335876X-0.053033X-0.053033X0.335876X-0.335876X0.053033X0*%
%TD*%
%TA.AperFunction,SMDPad,CuDef*%
%ADD14RoundRect,0.225000X0.017678X-0.335876X0.335876X-0.017678X-0.017678X0.335876X-0.335876X0.017678X0*%
%TD*%
%TA.AperFunction,SMDPad,CuDef*%
%ADD15RoundRect,0.250000X-0.512652X-0.159099X-0.159099X-0.512652X0.512652X0.159099X0.159099X0.512652X0*%
%TD*%
%TA.AperFunction,SMDPad,CuDef*%
%ADD16RoundRect,0.250000X-0.159099X0.512652X-0.512652X0.159099X0.159099X-0.512652X0.512652X-0.159099X0*%
%TD*%
%TA.AperFunction,SMDPad,CuDef*%
%ADD17RoundRect,0.250000X-0.250000X-0.475000X0.250000X-0.475000X0.250000X0.475000X-0.250000X0.475000X0*%
%TD*%
%TA.AperFunction,SMDPad,CuDef*%
%ADD18RoundRect,0.200000X-0.200000X-0.275000X0.200000X-0.275000X0.200000X0.275000X-0.200000X0.275000X0*%
%TD*%
%TA.AperFunction,SMDPad,CuDef*%
%ADD19R,1.550000X1.350000*%
%TD*%
%TA.AperFunction,SMDPad,CuDef*%
%ADD20R,1.170000X1.800000*%
%TD*%
%TA.AperFunction,SMDPad,CuDef*%
%ADD21R,1.900000X1.350000*%
%TD*%
%TA.AperFunction,SMDPad,CuDef*%
%ADD22R,1.200000X1.000000*%
%TD*%
%TA.AperFunction,SMDPad,CuDef*%
%ADD23R,0.850000X1.100000*%
%TD*%
%TA.AperFunction,SMDPad,CuDef*%
%ADD24R,0.750000X1.100000*%
%TD*%
%TA.AperFunction,SMDPad,CuDef*%
%ADD25RoundRect,0.150000X-0.587500X-0.150000X0.587500X-0.150000X0.587500X0.150000X-0.587500X0.150000X0*%
%TD*%
%TA.AperFunction,SMDPad,CuDef*%
%ADD26RoundRect,0.150000X0.521491X-0.309359X-0.309359X0.521491X-0.521491X0.309359X0.309359X-0.521491X0*%
%TD*%
%TA.AperFunction,SMDPad,CuDef*%
%ADD27RoundRect,0.050000X0.300520X-0.229810X-0.229810X0.300520X-0.300520X0.229810X0.229810X-0.300520X0*%
%TD*%
%TA.AperFunction,SMDPad,CuDef*%
%ADD28RoundRect,0.050000X0.300520X0.229810X0.229810X0.300520X-0.300520X-0.229810X-0.229810X-0.300520X0*%
%TD*%
%TA.AperFunction,HeatsinkPad*%
%ADD29RotRect,1.650000X1.650000X135.000000*%
%TD*%
%TA.AperFunction,SMDPad,CuDef*%
%ADD30RoundRect,0.250000X0.475000X-0.250000X0.475000X0.250000X-0.475000X0.250000X-0.475000X-0.250000X0*%
%TD*%
%TA.AperFunction,SMDPad,CuDef*%
%ADD31RoundRect,0.200000X-0.335876X-0.053033X-0.053033X-0.335876X0.335876X0.053033X0.053033X0.335876X0*%
%TD*%
%TA.AperFunction,SMDPad,CuDef*%
%ADD32RoundRect,0.150000X0.150000X-0.512500X0.150000X0.512500X-0.150000X0.512500X-0.150000X-0.512500X0*%
%TD*%
%TA.AperFunction,SMDPad,CuDef*%
%ADD33RoundRect,0.150000X0.150000X0.575000X-0.150000X0.575000X-0.150000X-0.575000X0.150000X-0.575000X0*%
%TD*%
%TA.AperFunction,SMDPad,CuDef*%
%ADD34RoundRect,0.075000X0.075000X0.650000X-0.075000X0.650000X-0.075000X-0.650000X0.075000X-0.650000X0*%
%TD*%
%TA.AperFunction,ComponentPad*%
%ADD35O,1.000000X2.100000*%
%TD*%
%TA.AperFunction,ComponentPad*%
%ADD36O,1.000000X1.600000*%
%TD*%
%TA.AperFunction,SMDPad,CuDef*%
%ADD37R,0.499999X0.249999*%
%TD*%
%TA.AperFunction,SMDPad,CuDef*%
%ADD38R,0.900001X1.599999*%
%TD*%
%TA.AperFunction,ComponentPad*%
%ADD39C,0.499999*%
%TD*%
%TA.AperFunction,SMDPad,CuDef*%
%ADD40RoundRect,0.150000X0.875000X0.150000X-0.875000X0.150000X-0.875000X-0.150000X0.875000X-0.150000X0*%
%TD*%
%TA.AperFunction,SMDPad,CuDef*%
%ADD41RotRect,0.550000X0.250000X135.000000*%
%TD*%
%TA.AperFunction,SMDPad,CuDef*%
%ADD42RotRect,0.500000X0.350000X135.000000*%
%TD*%
%TA.AperFunction,SMDPad,CuDef*%
%ADD43R,0.900000X1.500000*%
%TD*%
%TA.AperFunction,SMDPad,CuDef*%
%ADD44R,1.500000X0.900000*%
%TD*%
%TA.AperFunction,SMDPad,CuDef*%
%ADD45R,1.050000X1.050000*%
%TD*%
%TA.AperFunction,HeatsinkPad*%
%ADD46C,0.600000*%
%TD*%
%TA.AperFunction,HeatsinkPad*%
%ADD47R,4.200000X4.200000*%
%TD*%
%TA.AperFunction,SMDPad,CuDef*%
%ADD48R,1.800000X1.100000*%
%TD*%
%TA.AperFunction,SMDPad,CuDef*%
%ADD49RoundRect,0.200000X-0.275000X0.200000X-0.275000X-0.200000X0.275000X-0.200000X0.275000X0.200000X0*%
%TD*%
%TA.AperFunction,SMDPad,CuDef*%
%ADD50RoundRect,0.200000X0.200000X0.275000X-0.200000X0.275000X-0.200000X-0.275000X0.200000X-0.275000X0*%
%TD*%
%TA.AperFunction,ComponentPad*%
%ADD51R,1.700000X1.700000*%
%TD*%
%TA.AperFunction,ComponentPad*%
%ADD52C,1.700000*%
%TD*%
%TA.AperFunction,SMDPad,CuDef*%
%ADD53RoundRect,0.250000X-0.375000X-0.625000X0.375000X-0.625000X0.375000X0.625000X-0.375000X0.625000X0*%
%TD*%
%TA.AperFunction,SMDPad,CuDef*%
%ADD54RoundRect,0.250000X0.159099X-0.512652X0.512652X-0.159099X-0.159099X0.512652X-0.512652X0.159099X0*%
%TD*%
%TA.AperFunction,SMDPad,CuDef*%
%ADD55R,3.600000X2.600000*%
%TD*%
%TA.AperFunction,SMDPad,CuDef*%
%ADD56FreePoly0,180.000000*%
%TD*%
%TA.AperFunction,SMDPad,CuDef*%
%ADD57FreePoly1,180.000000*%
%TD*%
%TA.AperFunction,ViaPad*%
%ADD58C,0.600000*%
%TD*%
%TA.AperFunction,Conductor*%
%ADD59C,0.200000*%
%TD*%
G04 APERTURE END LIST*
D10*
%TO.P,C6,2*%
%TO.N,GND*%
X114750000Y-44500000D03*
%TO.P,C6,1*%
%TO.N,VBUS_5V*%
X113200000Y-44500000D03*
%TD*%
D11*
%TO.P,C2,2*%
%TO.N,GND*%
X118701992Y-47701992D03*
%TO.P,C2,1*%
%TO.N,VBUS_5V*%
X119798008Y-48798008D03*
%TD*%
D12*
%TO.P,D2,2,A_2*%
%TO.N,Net-(D2-A)*%
X113556847Y-72693153D03*
%TO.P,D2,1,K_1*%
%TO.N,GND*%
X112443153Y-73806847D03*
%TD*%
D10*
%TO.P,C11,2*%
%TO.N,GND*%
X107300000Y-78500000D03*
%TO.P,C11,1*%
%TO.N,+3V3*%
X105750000Y-78500000D03*
%TD*%
%TO.P,C16,1*%
%TO.N,+3V3*%
X105750000Y-74750000D03*
%TO.P,C16,2*%
%TO.N,GND*%
X107300000Y-74750000D03*
%TD*%
D13*
%TO.P,R5,2*%
%TO.N,+3V3*%
X103083363Y-73416637D03*
%TO.P,R5,1*%
%TO.N,ESP_EN*%
X101916637Y-74583363D03*
%TD*%
D14*
%TO.P,C12,2*%
%TO.N,GND*%
X103548008Y-41951992D03*
%TO.P,C12,1*%
%TO.N,+3V3*%
X102451992Y-43048008D03*
%TD*%
D15*
%TO.P,C13,2*%
%TO.N,GND*%
X109671751Y-42171751D03*
%TO.P,C13,1*%
%TO.N,DVI*%
X108328249Y-40828249D03*
%TD*%
D16*
%TO.P,C10,2*%
%TO.N,GND*%
X101328249Y-77671751D03*
%TO.P,C10,1*%
%TO.N,+3V3*%
X102671751Y-76328249D03*
%TD*%
D17*
%TO.P,C14,2*%
%TO.N,GND*%
X132900000Y-53500000D03*
%TO.P,C14,1*%
%TO.N,+3V3*%
X131000000Y-53500000D03*
%TD*%
D18*
%TO.P,R6,2*%
%TO.N,+3V3*%
X101400000Y-90000000D03*
%TO.P,R6,1*%
%TO.N,ESP_BOOT*%
X99750000Y-90000000D03*
%TD*%
D14*
%TO.P,C15,2*%
%TO.N,GND*%
X106048008Y-39201992D03*
%TO.P,C15,1*%
%TO.N,+3V3*%
X104951992Y-40298008D03*
%TD*%
D19*
%TO.P,J3,SH,SHIELD_SH*%
%TO.N,GND*%
X105185000Y-84925000D03*
D20*
X116505000Y-85150000D03*
D21*
X114480000Y-95625000D03*
D22*
%TO.P,J3,10*%
%TO.N,N/C*%
X105010000Y-94650000D03*
%TO.P,J3,9,DET_9*%
%TO.N,SD_CD*%
X105010000Y-90950000D03*
D23*
%TO.P,J3,1,DAT2_1*%
%TO.N,unconnected-(J3-DAT2-Pad1)*%
X107644999Y-84800000D03*
%TO.P,J3,2,DAT3/CD_2*%
%TO.N,SPI_CS_SD*%
X108745000Y-84800000D03*
%TO.P,J3,3,CMD_3*%
%TO.N,SPI_MOSI*%
X109844999Y-84800000D03*
%TO.P,J3,4,VDD_4*%
%TO.N,+3V3*%
X110945000Y-84800000D03*
%TO.P,J3,5,CLK_5*%
%TO.N,SPI_SCK*%
X112045000Y-84800000D03*
%TO.P,J3,6,VSS_6*%
%TO.N,GND*%
X113145000Y-84800000D03*
%TO.P,J3,7,DAT0_7*%
%TO.N,SPI_MISO*%
X114245000Y-84800000D03*
D24*
%TO.P,J3,8,DAT1_8*%
%TO.N,unconnected-(J3-DAT1-Pad8)*%
X115295000Y-84800000D03*
D21*
%TO.P,J3,SH,SHIELD_SH*%
%TO.N,GND*%
X108510000Y-95625000D03*
%TD*%
D18*
%TO.P,R11,1*%
%TO.N,+3V3*%
X103175000Y-70250000D03*
%TO.P,R11,2*%
%TO.N,ESP_EN*%
X104825000Y-70250000D03*
%TD*%
D25*
%TO.P,Q2,1,B_1*%
%TO.N,UART_DTR*%
X109875000Y-46300000D03*
%TO.P,Q2,2,E_2*%
%TO.N,GND*%
X109875000Y-48200000D03*
%TO.P,Q2,3,C_3*%
%TO.N,ESP_BOOT*%
X111750000Y-47250000D03*
%TD*%
D26*
%TO.P,Q1,1,B_1*%
%TO.N,UART_RTS*%
X111447712Y-39791215D03*
%TO.P,Q1,2,E_2*%
%TO.N,GND*%
X112791215Y-38447712D03*
%TO.P,Q1,3,C_3*%
%TO.N,ESP_EN*%
X110793638Y-37793638D03*
%TD*%
D27*
%TO.P,U2,1,RS485/GPIO.1_1*%
%TO.N,unconnected-(U2-RS485{slash}GPIO.1-Pad1)*%
X117869619Y-41250990D03*
%TO.P,U2,2,CLK/GPIO.0_2*%
%TO.N,unconnected-(U2-CLK{slash}GPIO.0-Pad2)*%
X118152462Y-40968148D03*
%TO.P,U2,3,GND_3*%
%TO.N,GND*%
X118435305Y-40685305D03*
%TO.P,U2,4,D+_4*%
%TO.N,USB_D+*%
X118718148Y-40402462D03*
%TO.P,U2,5,D-_5*%
%TO.N,USB_D\u2212*%
X119000990Y-40119619D03*
D28*
%TO.P,U2,6,VDD_6*%
%TO.N,3V3_USB*%
X119000990Y-39200381D03*
%TO.P,U2,7,VREGIN_7*%
%TO.N,VBUS_5V*%
X118718148Y-38917538D03*
%TO.P,U2,8,VBUS_8*%
X118435305Y-38634695D03*
%TO.P,U2,9,~{RST}_9*%
%TO.N,RST_CP2102N*%
X118152462Y-38351852D03*
%TO.P,U2,10,NC_10*%
%TO.N,unconnected-(U2-NC-Pad10)*%
X117869619Y-38069010D03*
D27*
%TO.P,U2,11,~{SUSPEND}_11*%
%TO.N,unconnected-(U2-~{SUSPEND}-Pad11)*%
X116950381Y-38069010D03*
%TO.P,U2,12,GND_12*%
%TO.N,GND*%
X116667538Y-38351852D03*
%TO.P,U2,13,~{WAKEUP}_13*%
%TO.N,UART_DTR*%
X116384695Y-38634695D03*
%TO.P,U2,14,SUSPEND_14*%
%TO.N,unconnected-(U2-SUSPEND-Pad14)*%
X116101852Y-38917538D03*
%TO.P,U2,15,~{CTS}_15*%
%TO.N,unconnected-(U2-~{CTS}-Pad15)*%
X115819010Y-39200381D03*
D28*
%TO.P,U2,16,~{RTS}_16*%
%TO.N,UART_RTS*%
X115819010Y-40119619D03*
%TO.P,U2,17,RXD_17*%
%TO.N,UART_RX*%
X116101852Y-40402462D03*
%TO.P,U2,18,TXD_18*%
%TO.N,UART_TX*%
X116384695Y-40685305D03*
%TO.P,U2,19,~{RXT}/GPIO.3_19*%
%TO.N,unconnected-(U2-~{RXT}{slash}GPIO.3-Pad19)*%
X116667538Y-40968148D03*
%TO.P,U2,20,~{TXT}/GPIO.2_20*%
%TO.N,unconnected-(U2-~{TXT}{slash}GPIO.2-Pad20)*%
X116950381Y-41250990D03*
D29*
%TO.P,U2,21,GND_21*%
%TO.N,GND*%
X117410000Y-39660000D03*
%TD*%
D30*
%TO.P,C1,2*%
%TO.N,GND*%
X126000000Y-47050001D03*
%TO.P,C1,1*%
%TO.N,VBUS_5V*%
X126000000Y-48949999D03*
%TD*%
D31*
%TO.P,R4,2*%
%TO.N,3V3_USB*%
X120333363Y-38083363D03*
%TO.P,R4,1*%
%TO.N,RST_CP2102N*%
X119166637Y-36916637D03*
%TD*%
D13*
%TO.P,R3,2*%
%TO.N,+3V3*%
X119083363Y-45166637D03*
%TO.P,R3,1*%
%TO.N,/PG_3V3*%
X117916637Y-46333363D03*
%TD*%
D32*
%TO.P,D1,3*%
%TO.N,N/C*%
X129637500Y-42812500D03*
%TO.P,D1,2,A2_2*%
%TO.N,GND*%
X130587499Y-45087500D03*
%TO.P,D1,1,A1_1*%
%TO.N,VBUS_RAW*%
X128687501Y-45087500D03*
%TD*%
D33*
%TO.P,J1,A1,GND_A1*%
%TO.N,GND*%
X130250000Y-39295000D03*
%TO.P,J1,A4,VBUS_A4*%
%TO.N,VBUS_RAW*%
X129450001Y-39295000D03*
D34*
%TO.P,J1,A5,CC1_A5*%
%TO.N,CC1*%
X128250000Y-39294999D03*
%TO.P,J1,A6,D+_A6*%
%TO.N,USB_D+*%
X127250000Y-39295000D03*
%TO.P,J1,A7,D-_A7*%
%TO.N,USB_D\u2212*%
X126750000Y-39295000D03*
%TO.P,J1,A8*%
%TO.N,N/C*%
X125750000Y-39294999D03*
D33*
%TO.P,J1,A9,VBUS_A9*%
%TO.N,VBUS_RAW*%
X124549999Y-39295000D03*
%TO.P,J1,A12,GND_A12*%
%TO.N,GND*%
X123750000Y-39295000D03*
%TO.P,J1,B1,GND_B1*%
X123750000Y-39295000D03*
%TO.P,J1,B4,VBUS_B4*%
%TO.N,VBUS_RAW*%
X124549999Y-39295000D03*
D34*
%TO.P,J1,B5,CC2_B5*%
%TO.N,CC2*%
X125250000Y-39295000D03*
%TO.P,J1,B6,D+_B6*%
%TO.N,USB_D+*%
X126250000Y-39295000D03*
%TO.P,J1,B7,D-_B7*%
%TO.N,USB_D\u2212*%
X127750000Y-39295000D03*
%TO.P,J1,B8*%
%TO.N,N/C*%
X128750000Y-39295000D03*
D33*
%TO.P,J1,B9,VBUS_B9*%
%TO.N,VBUS_RAW*%
X129450001Y-39295000D03*
%TO.P,J1,B12,GND_B12*%
%TO.N,GND*%
X130250000Y-39295000D03*
D35*
%TO.P,J1,SH,SHIELD_SH*%
X131320000Y-38380000D03*
D36*
X131320000Y-34200000D03*
D35*
X122680000Y-38380000D03*
D36*
X122680000Y-34200000D03*
%TD*%
D37*
%TO.P,U1,1,PGND_1*%
%TO.N,GND*%
X121299999Y-49850000D03*
%TO.P,U1,2,VIN_2*%
%TO.N,VBUS_5V*%
X121299999Y-50349999D03*
%TO.P,U1,3,EN_3*%
X121299999Y-50850001D03*
%TO.P,U1,4,AGND_4*%
%TO.N,GND*%
X121299999Y-51349999D03*
%TO.P,U1,5,FB_5*%
X123200001Y-51349999D03*
%TO.P,U1,6,VOS_6*%
%TO.N,+3V3*%
X123200001Y-50850001D03*
%TO.P,U1,7,SW_7*%
%TO.N,SW*%
X123200001Y-50349999D03*
%TO.P,U1,8,PG_8*%
%TO.N,/PG_3V3*%
X123200001Y-49850000D03*
D38*
%TO.P,U1,EP,EP_EP*%
%TO.N,GND*%
X122250000Y-50599998D03*
D39*
%TO.P,U1,V*%
%TO.N,N/C*%
X122250000Y-50200002D03*
X122250000Y-51000000D03*
%TD*%
D40*
%TO.P,U6,1,32KHZ_1*%
%TO.N,unconnected-(U6-32KHZ-Pad1)*%
X130500000Y-65750000D03*
%TO.P,U6,2,VCC_2*%
%TO.N,+3V3*%
X130500001Y-64480000D03*
%TO.P,U6,3,~{INT}/SQW_3*%
%TO.N,RTC_INT*%
X130500000Y-63210000D03*
%TO.P,U6,4,~{RST}_4*%
%TO.N,unconnected-(U6-~{RST}-Pad4)*%
X130500000Y-61940000D03*
%TO.P,U6,5,GND_5*%
%TO.N,GND*%
X130500000Y-60670000D03*
%TO.P,U6,6,GND_6*%
X130500000Y-59400000D03*
%TO.P,U6,7,GND_7*%
X130500001Y-58130000D03*
%TO.P,U6,8,GND_8*%
X130500000Y-56860000D03*
%TO.P,U6,9,GND_9*%
X121200000Y-56860000D03*
%TO.P,U6,10,GND_10*%
X121199999Y-58130000D03*
%TO.P,U6,11,GND_11*%
X121200000Y-59400000D03*
%TO.P,U6,12,GND_12*%
X121200000Y-60670000D03*
%TO.P,U6,13,GND_13*%
X121200000Y-61940000D03*
%TO.P,U6,14,VBAT_14*%
%TO.N,VBAT_RTC*%
X121200000Y-63210000D03*
%TO.P,U6,15,SDA_15*%
%TO.N,I2C_SDA*%
X121199999Y-64480000D03*
%TO.P,U6,16,SCL_16*%
%TO.N,I2C_SCL*%
X121200000Y-65750000D03*
%TD*%
D41*
%TO.P,U5,1,VCC_1*%
%TO.N,+3V3*%
X107868718Y-44325825D03*
%TO.P,U5,2,DVI_2*%
%TO.N,DVI*%
X108222272Y-43972272D03*
%TO.P,U5,3,GND_3*%
%TO.N,GND*%
X108575825Y-43618718D03*
%TO.P,U5,4,ADDR_4*%
X106631282Y-41674175D03*
%TO.P,U5,5,SDA_5*%
%TO.N,I2C_SDA*%
X106277728Y-42027728D03*
%TO.P,U5,6,SCL_6*%
%TO.N,I2C_SCL*%
X105924175Y-42381282D03*
%TD*%
D42*
%TO.P,U4,1,GND_1*%
%TO.N,GND*%
X103260786Y-45739645D03*
%TO.P,U4,2,CSB_2*%
%TO.N,+3V3*%
X103720406Y-45280025D03*
%TO.P,U4,3,SDI_3*%
%TO.N,I2C_SDA*%
X104180025Y-44820406D03*
%TO.P,U4,4,SCK_4*%
%TO.N,I2C_SCL*%
X104639645Y-44360786D03*
%TO.P,U4,5,SDO_5*%
%TO.N,GND*%
X106089214Y-45810355D03*
%TO.P,U4,6,VDDIO_6*%
%TO.N,+3V3*%
X105629594Y-46269975D03*
%TO.P,U4,7,GND_7*%
%TO.N,GND*%
X105169975Y-46729594D03*
%TO.P,U4,8,VDD_8*%
%TO.N,+3V3*%
X104710355Y-47189214D03*
%TD*%
D43*
%TO.P,U3,1,GND_1*%
%TO.N,GND*%
X99385000Y-68095000D03*
%TO.P,U3,2,VDD_2*%
%TO.N,+3V3*%
X100655000Y-68095000D03*
%TO.P,U3,3,EN_3*%
%TO.N,ESP_EN*%
X101925000Y-68095000D03*
%TO.P,U3,4,SENSOR_VP_4*%
%TO.N,unconnected-(U3-SENSOR_VP-Pad4)*%
X103195000Y-68095000D03*
%TO.P,U3,5,SENSOR_VN_5*%
%TO.N,unconnected-(U3-SENSOR_VN-Pad5)*%
X104465000Y-68095000D03*
%TO.P,U3,6,IO34_6*%
%TO.N,SD_CD*%
X105735000Y-68095000D03*
%TO.P,U3,7,IO35_7*%
%TO.N,unconnected-(U3-IO35-Pad7)*%
X107005000Y-68095000D03*
%TO.P,U3,8,IO32_8*%
%TO.N,GPIO_EXP1*%
X108275000Y-68095000D03*
%TO.P,U3,9,IO33_9*%
%TO.N,GPIO_EXP2*%
X109545000Y-68095000D03*
%TO.P,U3,10,IO25_10*%
%TO.N,GPIO_EXP3*%
X110815000Y-68095000D03*
%TO.P,U3,11,IO26_11*%
%TO.N,GPIO_EXP4*%
X112085000Y-68095000D03*
%TO.P,U3,12,IO27_12*%
%TO.N,STATUS_LED*%
X113355000Y-68095000D03*
%TO.P,U3,13,IO14_13*%
%TO.N,unconnected-(U3-IO14-Pad13)*%
X114625000Y-68095000D03*
%TO.P,U3,14,IO12_14*%
%TO.N,unconnected-(U3-IO12-Pad14)*%
X115895000Y-68095000D03*
D44*
%TO.P,U3,15,GND_15*%
%TO.N,GND*%
X117145000Y-65055000D03*
%TO.P,U3,16,IO13_16*%
%TO.N,unconnected-(U3-IO13-Pad16)*%
X117145000Y-63785001D03*
%TO.P,U3,17,SHD/SD2_17*%
%TO.N,unconnected-(U3-SHD{slash}SD2-Pad17)*%
X117145000Y-62515000D03*
%TO.P,U3,18,SWP/SD3_18*%
%TO.N,unconnected-(U3-SWP{slash}SD3-Pad18)*%
X117145000Y-61244999D03*
%TO.P,U3,19,SCS/CMD_19*%
%TO.N,unconnected-(U3-SCS{slash}CMD-Pad19)*%
X117145000Y-59975000D03*
%TO.P,U3,20,SCK/CLK_20*%
%TO.N,unconnected-(U3-SCK{slash}CLK-Pad20)*%
X117145000Y-58705000D03*
%TO.P,U3,21,SDO/SD0_21*%
%TO.N,unconnected-(U3-SDO{slash}SD0-Pad21)*%
X117145000Y-57435001D03*
%TO.P,U3,22,SDI/SD1_22*%
%TO.N,unconnected-(U3-SDI{slash}SD1-Pad22)*%
X117145000Y-56165000D03*
%TO.P,U3,23,IO15_23*%
%TO.N,unconnected-(U3-IO15-Pad23)*%
X117145000Y-54895000D03*
%TO.P,U3,24,IO2_24*%
%TO.N,unconnected-(U3-IO2-Pad24)*%
X117145000Y-53625000D03*
D43*
%TO.P,U3,25,IO0_25*%
%TO.N,ESP_BOOT*%
X115895000Y-50595000D03*
%TO.P,U3,26,IO4_26*%
%TO.N,RTC_INT*%
X114625000Y-50595000D03*
%TO.P,U3,27,IO16_27*%
%TO.N,unconnected-(U3-IO16-Pad27)*%
X113355000Y-50595000D03*
%TO.P,U3,28,IO17_28*%
%TO.N,SD_CD*%
X112085000Y-50595000D03*
%TO.P,U3,29,IO5_29*%
%TO.N,SPI_CS_SD*%
X110815000Y-50595000D03*
%TO.P,U3,30,IO18_30*%
%TO.N,SPI_SCK*%
X109545000Y-50595000D03*
%TO.P,U3,31,IO19_31*%
%TO.N,SPI_MISO*%
X108275000Y-50595000D03*
%TO.P,U3,32,NC_32*%
%TO.N,unconnected-(U3-NC-Pad32)*%
X107005000Y-50595000D03*
%TO.P,U3,33,IO21_33*%
%TO.N,I2C_SDA*%
X105735000Y-50595000D03*
%TO.P,U3,34,RXD0/IO3_34*%
%TO.N,UART_TX*%
X104465000Y-50595000D03*
%TO.P,U3,35,TXD0/IO1_35*%
%TO.N,UART_RX*%
X103195000Y-50595000D03*
%TO.P,U3,36,IO22_36*%
%TO.N,I2C_SCL*%
X101925000Y-50595000D03*
%TO.P,U3,37,IO23_37*%
%TO.N,SPI_MOSI*%
X100655000Y-50595000D03*
%TO.P,U3,38,GND_38*%
%TO.N,GND*%
X99385000Y-50595000D03*
D45*
%TO.P,U3,39,GND_39*%
X105200000Y-61549999D03*
D46*
X105962499Y-61550000D03*
D45*
X106725000Y-61550000D03*
D46*
X107487500Y-61550000D03*
D45*
X108250000Y-61550000D03*
D46*
X105200000Y-60787501D03*
X106725000Y-60787500D03*
X108250000Y-60787500D03*
D45*
X105200000Y-60025001D03*
D46*
X105962500Y-60025001D03*
D45*
X106725000Y-60025000D03*
D47*
X106725000Y-60025000D03*
D46*
X107487500Y-60025000D03*
D45*
X108250000Y-60025000D03*
D46*
X105200000Y-59262500D03*
X106725000Y-59262500D03*
X108250000Y-59262500D03*
D45*
X105200000Y-58500000D03*
D46*
X105962500Y-58500000D03*
D45*
X106725000Y-58500000D03*
D46*
X107487500Y-58500000D03*
D45*
X108250000Y-58500000D03*
%TD*%
D48*
%TO.P,SW2,1,1_1*%
%TO.N,ESP_BOOT*%
X90150000Y-90150000D03*
X96350000Y-90150000D03*
%TO.P,SW2,2,2_2*%
%TO.N,GND*%
X90150000Y-93850000D03*
X96350000Y-93850000D03*
%TD*%
%TO.P,SW1,1,1_1*%
%TO.N,ESP_EN*%
X79900000Y-90150000D03*
X86100000Y-90150000D03*
%TO.P,SW1,2,2_2*%
%TO.N,GND*%
X79900000Y-93850000D03*
X86100000Y-93850000D03*
%TD*%
D18*
%TO.P,R10,1*%
%TO.N,Net-(D2-A)*%
X112925000Y-70000000D03*
%TO.P,R10,2*%
%TO.N,STATUS_LED*%
X114575000Y-70000000D03*
%TD*%
%TO.P,R9,1*%
%TO.N,SPI_CS_SD*%
X114250000Y-47750000D03*
%TO.P,R9,2*%
%TO.N,+3V3*%
X115900000Y-47750000D03*
%TD*%
D13*
%TO.P,R8,1*%
%TO.N,+3V3*%
X100416637Y-47833363D03*
%TO.P,R8,2*%
%TO.N,I2C_SCL*%
X101583363Y-46666637D03*
%TD*%
D49*
%TO.P,R7,1*%
%TO.N,+3V3*%
X99500000Y-70350000D03*
%TO.P,R7,2*%
%TO.N,I2C_SDA*%
X99500000Y-72000000D03*
%TD*%
D50*
%TO.P,R2,1*%
%TO.N,CC2*%
X122750000Y-41750000D03*
%TO.P,R2,2*%
%TO.N,GND*%
X121100000Y-41750000D03*
%TD*%
D49*
%TO.P,R1,1*%
%TO.N,CC1*%
X126750000Y-42675000D03*
%TO.P,R1,2*%
%TO.N,GND*%
X126750000Y-44325000D03*
%TD*%
D51*
%TO.P,J2,1,Pin_1_1*%
%TO.N,+3V3*%
X138880000Y-71250000D03*
D52*
%TO.P,J2,2,Pin_2_2*%
%TO.N,GND*%
X141420000Y-71250000D03*
%TO.P,J2,3,Pin_3_3*%
%TO.N,I2C_SCL*%
X143959999Y-71250000D03*
%TO.P,J2,4,Pin_4_4*%
%TO.N,I2C_SDA*%
X146500000Y-71250000D03*
%TD*%
D53*
%TO.P,F1,1*%
%TO.N,VBUS_5V*%
X128350000Y-48500000D03*
%TO.P,F1,2*%
%TO.N,VBUS_RAW*%
X131150000Y-48500000D03*
%TD*%
D54*
%TO.P,C7,1*%
%TO.N,3V3_USB*%
X119078249Y-34671751D03*
%TO.P,C7,2*%
%TO.N,GND*%
X120421751Y-33328249D03*
%TD*%
D16*
%TO.P,C4,1*%
%TO.N,+3V3*%
X118171751Y-43328249D03*
%TO.P,C4,2*%
%TO.N,GND*%
X116828249Y-44671751D03*
%TD*%
D17*
%TO.P,C3,1*%
%TO.N,VBUS_5V*%
X112000000Y-34500000D03*
%TO.P,C3,2*%
%TO.N,GND*%
X113900000Y-34500000D03*
%TD*%
D55*
%TO.P,BT1,1,+_1*%
%TO.N,VBAT_RTC*%
X144250000Y-62150000D03*
%TO.P,BT1,2,-_2*%
%TO.N,GND*%
X144250000Y-32850000D03*
%TD*%
D56*
%TO.P,L1,1,1_1*%
%TO.N,SW*%
X123975001Y-45500000D03*
D57*
%TO.P,L1,2,2_2*%
%TO.N,+3V3*%
X121024999Y-45500000D03*
%TD*%
D16*
%TO.P,C5,1*%
%TO.N,VBUS_5V*%
X116921751Y-35078249D03*
%TO.P,C5,2*%
%TO.N,GND*%
X115578249Y-36421751D03*
%TD*%
D58*
%TO.N,GND*%
X126000000Y-45250000D03*
X107008639Y-38035881D03*
X108750000Y-39250000D03*
X105750000Y-63250000D03*
X99000000Y-66750000D03*
%TO.N,VBUS_5V*%
X117709664Y-47323347D03*
%TO.N,GND*%
X86750000Y-95500000D03*
X107750000Y-79750000D03*
X127750000Y-52250000D03*
%TO.N,3V3_USB*%
X121000000Y-39000000D03*
%TO.N,GND*%
X111950735Y-75200735D03*
%TO.N,Net-(D2-A)*%
X112000000Y-71750000D03*
X112000000Y-70425000D03*
%TO.N,+3V3*%
X116945491Y-45978008D03*
%TO.N,SPI_CS_SD*%
X112250000Y-49000000D03*
X113424265Y-48075735D03*
%TO.N,GND*%
X107000000Y-76250000D03*
X133500000Y-55000000D03*
%TO.N,+3V3*%
X105826577Y-40226365D03*
X108307893Y-44807893D03*
X101500000Y-43750000D03*
%TO.N,GND*%
X102000000Y-79500000D03*
%TO.N,VBUS_5V*%
X119300722Y-38052119D03*
X114250000Y-42750000D03*
%TO.N,GND*%
X118250000Y-67750000D03*
%TO.N,+3V3*%
X133000000Y-65500000D03*
%TO.N,GND*%
X102250000Y-48250000D03*
%TO.N,ESP_EN*%
X101000000Y-64750000D03*
X101250000Y-72250000D03*
%TO.N,ESP_BOOT*%
X116750000Y-49000000D03*
X99750000Y-79250000D03*
%TO.N,GND*%
X97250000Y-96000000D03*
%TO.N,SPI_MOSI*%
X103500000Y-65500000D03*
X107250000Y-71625000D03*
%TO.N,GND*%
X108750000Y-47500000D03*
%TO.N,+3V3*%
X103750000Y-47500000D03*
X102000000Y-45750000D03*
%TO.N,GND*%
X106299265Y-44799265D03*
%TO.N,RTC_INT*%
X115750000Y-52500000D03*
X119850000Y-54000000D03*
%TO.N,SD_CD*%
X106000000Y-69500000D03*
X106000000Y-71750000D03*
%TO.N,GND*%
X118000000Y-85250000D03*
%TO.N,SPI_MISO*%
X108945000Y-56346472D03*
X113750000Y-86000000D03*
%TO.N,SPI_SCK*%
X110750000Y-86500000D03*
X110215000Y-57616472D03*
%TO.N,SPI_CS_SD*%
X109000000Y-83250000D03*
X111049265Y-58450735D03*
%TO.N,I2C_SDA*%
X105000000Y-52750000D03*
X98250000Y-66000000D03*
X115250000Y-63500000D03*
X124250000Y-64500000D03*
X107250000Y-43000000D03*
X106564265Y-48814265D03*
X103250001Y-44500000D03*
%TO.N,+3V3*%
X100750000Y-49000000D03*
X101276471Y-44776470D03*
%TO.N,GND*%
X140750000Y-68500000D03*
%TO.N,I2C_SCL*%
X119850000Y-66500000D03*
X115000000Y-66250000D03*
%TO.N,GND*%
X121250000Y-55250000D03*
%TO.N,UART_DTR*%
X112764265Y-42614265D03*
X113750000Y-40600000D03*
%TO.N,GND*%
X99250000Y-48500000D03*
X114250000Y-38250000D03*
%TO.N,USB_D\u2212*%
X120000000Y-40000000D03*
X119750000Y-42500000D03*
%TO.N,GND*%
X115500000Y-43250000D03*
X118750000Y-41750000D03*
X121000000Y-40500000D03*
%TO.N,+3V3*%
X124000000Y-51500000D03*
X122098529Y-48651471D03*
%TO.N,GND*%
X120000000Y-49500000D03*
X121000000Y-52000000D03*
%TD*%
%TO.N,GND*%
D59*
X126500000Y-44750000D02*
X126000000Y-45250000D01*
X126750000Y-44750000D02*
X126500000Y-44750000D01*
X126750000Y-44750000D02*
X126750000Y-44325000D01*
X121250000Y-49500000D02*
X121299999Y-49549999D01*
X121299999Y-49549999D02*
X121299999Y-49850000D01*
X107000000Y-38250000D02*
X107000000Y-38000000D01*
X106048008Y-39201992D02*
X107000000Y-38250000D01*
X108500000Y-39500000D02*
X108750000Y-39250000D01*
X108500000Y-39760699D02*
X108500000Y-39500000D01*
X108500000Y-39760699D02*
X108264427Y-39760699D01*
X106048008Y-39201992D02*
X104951992Y-39201992D01*
X105962499Y-63037501D02*
X105750000Y-63250000D01*
X105962499Y-61550000D02*
X105962499Y-63037501D01*
X107487500Y-60025000D02*
X108250000Y-59262500D01*
X108250000Y-60787500D02*
X107487500Y-60025000D01*
X107487500Y-61550000D02*
X108250000Y-60787500D01*
X106725000Y-60787500D02*
X107487500Y-61550000D01*
X105962499Y-61550000D02*
X106725000Y-60787500D01*
X105200000Y-60787501D02*
X105962499Y-61550000D01*
X105962500Y-60025001D02*
X105200000Y-60787501D01*
X105200000Y-59262500D02*
X105962500Y-60025001D01*
X105962500Y-58500000D02*
X105200000Y-59262500D01*
X106725000Y-59262500D02*
X105962500Y-58500000D01*
X107487500Y-58500000D02*
X106725000Y-59262500D01*
X108250000Y-59262500D02*
X107487500Y-58500000D01*
X106725000Y-60025000D02*
X107487500Y-60025000D01*
X108250000Y-60025000D02*
X106725000Y-60025000D01*
X106725000Y-61550000D02*
X108250000Y-60025000D01*
X105962500Y-60025001D02*
X105962499Y-61550000D01*
X105962500Y-60025000D02*
X105200000Y-59262500D01*
X106725000Y-60025000D02*
X105962500Y-60025000D01*
X106725000Y-60025000D02*
X106725000Y-59262500D01*
X99385000Y-67135000D02*
X99000000Y-66750000D01*
X99385000Y-68095000D02*
X99385000Y-67135000D01*
%TO.N,VBUS_5V*%
X117709664Y-47959664D02*
X117709664Y-47323347D01*
X118548008Y-48798008D02*
X117709664Y-47959664D01*
X119798008Y-48798008D02*
X118548008Y-48798008D01*
%TO.N,GND*%
X114750000Y-44000000D02*
X115500000Y-43250000D01*
X114750000Y-44500000D02*
X114750000Y-44000000D01*
X86100000Y-94850000D02*
X86750000Y-95500000D01*
X86100000Y-93850000D02*
X86100000Y-94850000D01*
X107300000Y-79300000D02*
X107750000Y-79750000D01*
X107300000Y-78500000D02*
X107300000Y-79300000D01*
%TO.N,+3V3*%
X106250000Y-72500000D02*
X106600000Y-72500000D01*
X105750000Y-76500000D02*
X104500000Y-75250000D01*
X104500000Y-75250000D02*
X104500000Y-74250000D01*
X105750000Y-78500000D02*
X105750000Y-76500000D01*
X104500000Y-74250000D02*
X106250000Y-72500000D01*
X106600000Y-71125000D02*
X106600000Y-72500000D01*
%TO.N,3V3_USB*%
X121000000Y-39000000D02*
X121000000Y-38750000D01*
X121000000Y-38750000D02*
X120333363Y-38083363D01*
%TO.N,GND*%
X112443153Y-74708317D02*
X111950735Y-75200735D01*
X112443153Y-73806847D02*
X112443153Y-74708317D01*
%TO.N,Net-(D2-A)*%
X112500000Y-70425000D02*
X112925000Y-70000000D01*
X112000000Y-70425000D02*
X112500000Y-70425000D01*
X112943153Y-72693153D02*
X112000000Y-71750000D01*
X113556847Y-72693153D02*
X112943153Y-72693153D01*
%TO.N,STATUS_LED*%
X113355000Y-68780000D02*
X114575000Y-70000000D01*
X113355000Y-68095000D02*
X113355000Y-68780000D01*
%TO.N,+3V3*%
X116289195Y-48139195D02*
X117076843Y-48139195D01*
X115900000Y-47750000D02*
X116289195Y-48139195D01*
%TO.N,SPI_CS_SD*%
X110815000Y-49645000D02*
X110815000Y-50595000D01*
X112250000Y-49000000D02*
X111460000Y-49000000D01*
X113750000Y-47750000D02*
X113424265Y-48075735D01*
X111460000Y-49000000D02*
X110815000Y-49645000D01*
X114250000Y-47750000D02*
X113750000Y-47750000D01*
%TO.N,GND*%
X107300000Y-75950000D02*
X107000000Y-76250000D01*
X107300000Y-74750000D02*
X107300000Y-75950000D01*
%TO.N,+3V3*%
X106600000Y-72500000D02*
X106600000Y-73900000D01*
X106500000Y-71025000D02*
X106600000Y-71125000D01*
X106600000Y-73900000D02*
X105750000Y-74750000D01*
X106500000Y-71025000D02*
X102750000Y-71025000D01*
%TO.N,GND*%
X132900000Y-54400000D02*
X133500000Y-55000000D01*
X132900000Y-53500000D02*
X132900000Y-54400000D01*
%TO.N,+3V3*%
X129815686Y-53750000D02*
X130750000Y-53750000D01*
X130750000Y-53750000D02*
X131000000Y-53500000D01*
X105023635Y-40226365D02*
X104951992Y-40298008D01*
X105826577Y-40226365D02*
X105023635Y-40226365D01*
X107868718Y-44325825D02*
X107868718Y-44368718D01*
X107868718Y-44368718D02*
X108307893Y-44807893D01*
%TO.N,GND*%
X103548008Y-40605976D02*
X103548008Y-41951992D01*
X104951992Y-39201992D02*
X103548008Y-40605976D01*
%TO.N,+3V3*%
X101500000Y-43750000D02*
X101750000Y-43750000D01*
X101750000Y-43750000D02*
X102451992Y-43048008D01*
%TO.N,GND*%
X102000000Y-78343502D02*
X102000000Y-79500000D01*
X101328249Y-77671751D02*
X102000000Y-78343502D01*
%TO.N,+3V3*%
X103083363Y-75916637D02*
X103083363Y-73416637D01*
X102671751Y-76328249D02*
X103083363Y-75916637D01*
%TO.N,VBUS_5V*%
X113200000Y-43800000D02*
X114250000Y-42750000D01*
X113200000Y-44500000D02*
X113200000Y-43800000D01*
%TO.N,GND*%
X115071751Y-33328249D02*
X120421751Y-33328249D01*
X113900000Y-34500000D02*
X115071751Y-33328249D01*
%TO.N,VBUS_5V*%
X117343324Y-37093324D02*
X117000000Y-36750000D01*
X117000000Y-36712130D02*
X115750000Y-35462130D01*
X115750000Y-35462130D02*
X115750000Y-35354201D01*
X118000000Y-37093324D02*
X117343324Y-37093324D01*
X119093324Y-36000000D02*
X118000000Y-37093324D01*
X117000000Y-36750000D02*
X117000000Y-36712130D01*
X114555543Y-35354201D02*
X115750000Y-35354201D01*
X114384744Y-35525000D02*
X114555543Y-35354201D01*
X113025000Y-35525000D02*
X114384744Y-35525000D01*
X112000000Y-34500000D02*
X113025000Y-35525000D01*
X119093324Y-36000000D02*
X117843502Y-36000000D01*
%TO.N,GND*%
X119798008Y-47701992D02*
X120750000Y-48653984D01*
X120750000Y-48653984D02*
X120750000Y-49500000D01*
X118701992Y-47701992D02*
X119798008Y-47701992D01*
X120000000Y-49500000D02*
X120750000Y-49500000D01*
%TO.N,/PG_3V3*%
X122850000Y-49499999D02*
X123200001Y-49850000D01*
X122249999Y-49499999D02*
X122850000Y-49499999D01*
X122001471Y-49251471D02*
X122249999Y-49499999D01*
X119083363Y-46333363D02*
X121498529Y-48748529D01*
X121850000Y-49251471D02*
X122001471Y-49251471D01*
X117916637Y-46333363D02*
X119083363Y-46333363D01*
X121498529Y-48748529D02*
X121498529Y-48900000D01*
X121498529Y-48900000D02*
X121850000Y-49251471D01*
%TO.N,VBUS_5V*%
X120353335Y-50850001D02*
X121299999Y-50850001D01*
X119250000Y-49746666D02*
X120353335Y-50850001D01*
X119250000Y-49346016D02*
X119250000Y-49746666D01*
X119798008Y-48798008D02*
X119250000Y-49346016D01*
%TO.N,GND*%
X118250000Y-66160000D02*
X118250000Y-67750000D01*
X117145000Y-65055000D02*
X118250000Y-66160000D01*
%TO.N,+3V3*%
X119684315Y-52750000D02*
X119250000Y-52750000D01*
X120684315Y-53750000D02*
X119684315Y-52750000D01*
X129815686Y-53750000D02*
X120684315Y-53750000D01*
X132900000Y-56834314D02*
X129815686Y-53750000D01*
X132900000Y-63105000D02*
X132900000Y-56834314D01*
X119250000Y-52750000D02*
X119250000Y-68750000D01*
X130500001Y-64480000D02*
X131525000Y-64480000D01*
X131525000Y-64480000D02*
X132900000Y-63105000D01*
%TO.N,RTC_INT*%
X124500000Y-55000000D02*
X124000000Y-54500000D01*
X132500000Y-57000000D02*
X130500000Y-55000000D01*
X120350000Y-54500000D02*
X119850000Y-54000000D01*
X132500000Y-62234999D02*
X132500000Y-57000000D01*
X130500000Y-55000000D02*
X124500000Y-55000000D01*
X131524999Y-63210000D02*
X132500000Y-62234999D01*
X124000000Y-54500000D02*
X120350000Y-54500000D01*
X130500000Y-63210000D02*
X131524999Y-63210000D01*
%TO.N,+3V3*%
X131980000Y-64480000D02*
X133000000Y-65500000D01*
X130500001Y-64480000D02*
X131980000Y-64480000D01*
X103083363Y-71358363D02*
X102750000Y-71025000D01*
X103083363Y-73416637D02*
X103083363Y-71358363D01*
X102750000Y-71025000D02*
X101025000Y-71025000D01*
%TO.N,ESP_EN*%
X101916637Y-72916637D02*
X101250000Y-72250000D01*
X101916637Y-74583363D02*
X101916637Y-72916637D01*
%TO.N,+3V3*%
X118171751Y-44982231D02*
X117076843Y-46077139D01*
X118171751Y-43328249D02*
X118171751Y-44982231D01*
X117076843Y-46077139D02*
X117076843Y-48139195D01*
X117076843Y-48139195D02*
X119250000Y-50312352D01*
X119416726Y-45500000D02*
X119083363Y-45166637D01*
X121024999Y-45500000D02*
X119416726Y-45500000D01*
%TO.N,3V3_USB*%
X120669239Y-37747487D02*
X120333363Y-38083363D01*
X119237436Y-34671751D02*
X120669239Y-36103554D01*
X119078249Y-34671751D02*
X119237436Y-34671751D01*
X120669239Y-36103554D02*
X120669239Y-37747487D01*
%TO.N,GND*%
X121293502Y-34200000D02*
X120421751Y-33328249D01*
X122680000Y-34200000D02*
X121293502Y-34200000D01*
X102250000Y-47096018D02*
X102250000Y-48250000D01*
X103260786Y-46085232D02*
X102250000Y-47096018D01*
X103260786Y-45739645D02*
X103260786Y-46085232D01*
%TO.N,I2C_SCL*%
X103000000Y-48750000D02*
X103000000Y-47250000D01*
X103000000Y-47250000D02*
X105000000Y-45250000D01*
X101925000Y-49825000D02*
X103000000Y-48750000D01*
X101925000Y-50595000D02*
X101925000Y-49825000D01*
%TO.N,+3V3*%
X103519455Y-45079075D02*
X103720406Y-45280025D01*
X103498530Y-45100000D02*
X103519455Y-45079075D01*
X103001472Y-45100000D02*
X103498530Y-45100000D01*
X102000000Y-45750000D02*
X102000000Y-45467158D01*
X102000000Y-45467158D02*
X102684315Y-44782843D01*
X102684315Y-44782843D02*
X103001472Y-45100000D01*
%TO.N,ESP_EN*%
X101000000Y-64750000D02*
X101925000Y-65675000D01*
X97876422Y-83445000D02*
X99150000Y-82171422D01*
X101925000Y-65675000D02*
X101925000Y-68095000D01*
X92805000Y-83445000D02*
X97876422Y-83445000D01*
X86100000Y-90150000D02*
X92805000Y-83445000D01*
X99150000Y-82171422D02*
X99150000Y-74350000D01*
X99150000Y-74350000D02*
X101250000Y-72250000D01*
%TO.N,ESP_BOOT*%
X116750000Y-49000000D02*
X116750000Y-49740000D01*
X116750000Y-49740000D02*
X115895000Y-50595000D01*
X99750000Y-90000000D02*
X99750000Y-79250000D01*
X96500000Y-90000000D02*
X96350000Y-90150000D01*
X99750000Y-90000000D02*
X96500000Y-90000000D01*
%TO.N,+3V3*%
X110945000Y-84050000D02*
X110945000Y-84800000D01*
X111445000Y-83550000D02*
X110945000Y-84050000D01*
X117148529Y-83550000D02*
X111445000Y-83550000D01*
X118600000Y-85001471D02*
X117148529Y-83550000D01*
X118600000Y-94900000D02*
X118600000Y-85001471D01*
X118000000Y-95500000D02*
X118600000Y-94900000D01*
X118000000Y-96250000D02*
X118000000Y-95500000D01*
X105910000Y-97250000D02*
X117000000Y-97250000D01*
X117000000Y-97250000D02*
X118000000Y-96250000D01*
X101400000Y-92740000D02*
X105910000Y-97250000D01*
X101400000Y-90000000D02*
X101400000Y-92740000D01*
%TO.N,GND*%
X96350000Y-95100000D02*
X97250000Y-96000000D01*
X96350000Y-93850000D02*
X96350000Y-95100000D01*
%TO.N,ESP_EN*%
X79900000Y-90150000D02*
X86100000Y-90150000D01*
%TO.N,GND*%
X86100000Y-93850000D02*
X79900000Y-93850000D01*
X90150000Y-93850000D02*
X96350000Y-93850000D01*
%TO.N,ESP_BOOT*%
X96350000Y-90150000D02*
X90150000Y-90150000D01*
%TO.N,SD_CD*%
X115248529Y-66850000D02*
X106600000Y-66850000D01*
X106500000Y-66750000D02*
X105735000Y-67515000D01*
X106600000Y-66850000D02*
X106500000Y-66750000D01*
X115850000Y-66248529D02*
X115248529Y-66850000D01*
X115850000Y-63251471D02*
X115850000Y-66248529D01*
X105735000Y-67515000D02*
X105735000Y-68095000D01*
X112085000Y-59486471D02*
X115850000Y-63251471D01*
X112085000Y-50595000D02*
X112085000Y-59486471D01*
%TO.N,I2C_SCL*%
X105500000Y-66250000D02*
X101925000Y-62675000D01*
X101925000Y-62675000D02*
X101925000Y-50595000D01*
X115000000Y-66250000D02*
X105500000Y-66250000D01*
%TO.N,VBUS_RAW*%
X129450001Y-39852409D02*
X129450001Y-39295000D01*
X128687501Y-40614909D02*
X129450001Y-39852409D01*
%TO.N,GND*%
X132670000Y-32850000D02*
X131320000Y-34200000D01*
X144250000Y-32850000D02*
X132670000Y-32850000D01*
%TO.N,VBAT_RTC*%
X124210000Y-63210000D02*
X121200000Y-63210000D01*
X128250000Y-67250000D02*
X124210000Y-63210000D01*
X132500000Y-67250000D02*
X128250000Y-67250000D01*
X144250000Y-62150000D02*
X137600000Y-62150000D01*
X137600000Y-62150000D02*
X132500000Y-67250000D01*
%TO.N,SPI_MOSI*%
X100655000Y-53155000D02*
X100655000Y-50595000D01*
X101250000Y-53750000D02*
X100655000Y-53155000D01*
X103500000Y-65500000D02*
X101250000Y-63250000D01*
X108375000Y-71625000D02*
X107250000Y-71625000D01*
X109844999Y-73094999D02*
X108375000Y-71625000D01*
X101250000Y-63250000D02*
X101250000Y-53750000D01*
X109844999Y-84800000D02*
X109844999Y-73094999D01*
%TO.N,GND*%
X109450000Y-48200000D02*
X108750000Y-47500000D01*
X109875000Y-48200000D02*
X109450000Y-48200000D01*
%TO.N,+3V3*%
X104399569Y-47500000D02*
X104710355Y-47189214D01*
X103750000Y-47500000D02*
X104399569Y-47500000D01*
%TO.N,GND*%
X106089214Y-45009316D02*
X106299265Y-44799265D01*
X106089214Y-45810355D02*
X106089214Y-45009316D01*
X104940381Y-46500000D02*
X105169975Y-46729594D01*
X105452296Y-45669455D02*
X104940381Y-46181370D01*
X104940381Y-46181370D02*
X104940381Y-46500000D01*
X105948314Y-45669455D02*
X105452296Y-45669455D01*
X106089214Y-45810355D02*
X105948314Y-45669455D01*
%TO.N,+3V3*%
X105859619Y-46817768D02*
X105859619Y-46500000D01*
X105347273Y-47330114D02*
X105859619Y-46817768D01*
X104851255Y-47330114D02*
X105347273Y-47330114D01*
X104710355Y-47189214D02*
X104851255Y-47330114D01*
X105859619Y-46500000D02*
X105629594Y-46269975D01*
X106177387Y-46500000D02*
X105859619Y-46500000D01*
X107868718Y-44808669D02*
X106177387Y-46500000D01*
X107868718Y-44325825D02*
X107868718Y-44808669D01*
%TO.N,GND*%
X108264427Y-39760699D02*
X106631282Y-41393844D01*
X108710269Y-39760699D02*
X108500000Y-39760699D01*
X109671751Y-42171751D02*
X109671751Y-40722181D01*
X109671751Y-40722181D02*
X108710269Y-39760699D01*
X106631282Y-41393844D02*
X106631282Y-41674175D01*
%TO.N,DVI*%
X108451561Y-44201561D02*
X108222272Y-43972272D01*
X109158668Y-43459098D02*
X109158668Y-43849049D01*
X108328249Y-42628679D02*
X109158668Y-43459098D01*
X108806156Y-44201561D02*
X108451561Y-44201561D01*
X108328249Y-40828249D02*
X108328249Y-42628679D01*
X109158668Y-43849049D02*
X108806156Y-44201561D01*
%TO.N,GND*%
X106808059Y-41674175D02*
X108575825Y-43441941D01*
X108575825Y-43441941D02*
X108575825Y-43618718D01*
X106631282Y-41674175D02*
X106808059Y-41674175D01*
%TO.N,RTC_INT*%
X114625000Y-51375000D02*
X114625000Y-50595000D01*
X115750000Y-52500000D02*
X114625000Y-51375000D01*
%TO.N,SD_CD*%
X106000000Y-68360000D02*
X105735000Y-68095000D01*
X106000000Y-69500000D02*
X106000000Y-68360000D01*
X104000000Y-73750000D02*
X106000000Y-71750000D01*
X104000000Y-89940000D02*
X104000000Y-73750000D01*
X105010000Y-90950000D02*
X104000000Y-89940000D01*
%TO.N,GND*%
X117900000Y-85150000D02*
X118000000Y-85250000D01*
X116505000Y-85150000D02*
X117900000Y-85150000D01*
X108510000Y-95625000D02*
X108510000Y-88250000D01*
X108510000Y-88250000D02*
X105185000Y-84925000D01*
X114480000Y-95625000D02*
X108510000Y-95625000D01*
X116500000Y-93605000D02*
X114480000Y-95625000D01*
X116500000Y-84250000D02*
X116500000Y-93605000D01*
X116500000Y-84250000D02*
X116505000Y-84255000D01*
X113145000Y-84325000D02*
X113520000Y-83950000D01*
X113145000Y-84800000D02*
X113145000Y-84325000D01*
X113520000Y-83950000D02*
X116200000Y-83950000D01*
X116200000Y-83950000D02*
X116500000Y-84250000D01*
X116505000Y-84255000D02*
X116505000Y-85150000D01*
%TO.N,+3V3*%
X110945000Y-77055000D02*
X110945000Y-84800000D01*
X116975000Y-71025000D02*
X110945000Y-77055000D01*
%TO.N,SPI_MISO*%
X114245000Y-85505000D02*
X114245000Y-84800000D01*
X113750000Y-86000000D02*
X114245000Y-85505000D01*
X108275000Y-55676472D02*
X108945000Y-56346472D01*
X108275000Y-50595000D02*
X108275000Y-55676472D01*
%TO.N,SPI_SCK*%
X112045000Y-85205000D02*
X112045000Y-84800000D01*
X110750000Y-86500000D02*
X112045000Y-85205000D01*
X109545000Y-56946472D02*
X110215000Y-57616472D01*
X109545000Y-50595000D02*
X109545000Y-56946472D01*
%TO.N,SPI_CS_SD*%
X109000000Y-84545000D02*
X108745000Y-84800000D01*
X109000000Y-83250000D02*
X109000000Y-84545000D01*
X110815000Y-58216470D02*
X111049265Y-58450735D01*
X110815000Y-50595000D02*
X110815000Y-58216470D01*
%TO.N,+3V3*%
X99500000Y-70350000D02*
X99500000Y-69905000D01*
X99500000Y-69905000D02*
X100655000Y-68750000D01*
X100655000Y-68750000D02*
X100655000Y-68095000D01*
%TO.N,I2C_SDA*%
X105000000Y-52750000D02*
X105735000Y-52015000D01*
X105735000Y-52015000D02*
X105735000Y-50595000D01*
X98250000Y-70750000D02*
X98250000Y-66000000D01*
X99500000Y-72000000D02*
X98250000Y-70750000D01*
X127650000Y-67900000D02*
X124250000Y-64500000D01*
X143150000Y-67900000D02*
X127650000Y-67900000D01*
X146500000Y-71250000D02*
X143150000Y-67900000D01*
X124250000Y-64500000D02*
X124230000Y-64480000D01*
X124230000Y-64480000D02*
X121199999Y-64480000D01*
X105735000Y-53985000D02*
X115250000Y-63500000D01*
X105735000Y-50595000D02*
X105735000Y-53985000D01*
X107250000Y-43000000D02*
X106277728Y-42027728D01*
X103859619Y-44500000D02*
X104180025Y-44820406D01*
X103250001Y-44500000D02*
X103859619Y-44500000D01*
X105735000Y-49643530D02*
X106564265Y-48814265D01*
X105735000Y-50595000D02*
X105735000Y-49643530D01*
%TO.N,+3V3*%
X100750000Y-48166726D02*
X100416637Y-47833363D01*
X100750000Y-49000000D02*
X100750000Y-48166726D01*
X98235000Y-47817941D02*
X101276471Y-44776470D01*
X98235000Y-64020685D02*
X98235000Y-47817941D01*
X100655000Y-66440686D02*
X98235000Y-64020685D01*
X100655000Y-68095000D02*
X100655000Y-66440686D01*
%TO.N,I2C_SCL*%
X101583363Y-46666637D02*
X101583363Y-50253363D01*
X101583363Y-50253363D02*
X101925000Y-50595000D01*
X143959999Y-72540001D02*
X143959999Y-71250000D01*
X126350000Y-73000000D02*
X143500000Y-73000000D01*
X119850000Y-66500000D02*
X126350000Y-73000000D01*
X143500000Y-73000000D02*
X143959999Y-72540001D01*
%TO.N,GND*%
X141420000Y-69170000D02*
X140750000Y-68500000D01*
X141420000Y-71250000D02*
X141420000Y-69170000D01*
%TO.N,I2C_SCL*%
X119850000Y-66500000D02*
X120450000Y-66500000D01*
X120450000Y-66500000D02*
X121200000Y-65750000D01*
%TO.N,GND*%
X121200000Y-55300000D02*
X121250000Y-55250000D01*
X121200000Y-56860000D02*
X121200000Y-55300000D01*
X121200000Y-56860000D02*
X130500000Y-56860000D01*
X130500000Y-56860000D02*
X130500000Y-60670000D01*
X121200000Y-56860000D02*
X121200000Y-61940000D01*
%TO.N,I2C_SCL*%
X106250000Y-44000000D02*
X105000000Y-45250000D01*
X106250000Y-42707107D02*
X106250000Y-44000000D01*
X105924175Y-42381282D02*
X106250000Y-42707107D01*
X105000000Y-44721141D02*
X104639645Y-44360786D01*
X105000000Y-45250000D02*
X105000000Y-44721141D01*
%TO.N,+3V3*%
X100655000Y-70655000D02*
X100655000Y-68095000D01*
X101025000Y-71025000D02*
X100655000Y-70655000D01*
X116975000Y-71025000D02*
X106500000Y-71025000D01*
X119250000Y-68750000D02*
X116975000Y-71025000D01*
X119250000Y-50312352D02*
X119250000Y-52750000D01*
%TO.N,UART_DTR*%
X112764265Y-43410735D02*
X109875000Y-46300000D01*
X112764265Y-42614265D02*
X112764265Y-43410735D01*
X113750000Y-40244084D02*
X113750000Y-40600000D01*
X116016038Y-38266038D02*
X115728046Y-38266038D01*
X116384695Y-38634695D02*
X116016038Y-38266038D01*
X115728046Y-38266038D02*
X113750000Y-40244084D01*
%TO.N,UART_RTS*%
X114738628Y-41200000D02*
X115819010Y-40119619D01*
X112856497Y-41200000D02*
X114738628Y-41200000D01*
X111447712Y-39791215D02*
X112856497Y-41200000D01*
%TO.N,UART_RX*%
X115733195Y-40771119D02*
X116101852Y-40402462D01*
X114904314Y-41600000D02*
X115733195Y-40771119D01*
X112364315Y-41600000D02*
X114904314Y-41600000D01*
X104419314Y-49545000D02*
X112364315Y-41600000D01*
X103715000Y-49545000D02*
X104419314Y-49545000D01*
X103715000Y-50249314D02*
X103715000Y-49545000D01*
X103195000Y-50595000D02*
X103369314Y-50595000D01*
X103369314Y-50595000D02*
X103715000Y-50249314D01*
%TO.N,ESP_BOOT*%
X115000000Y-49250000D02*
X115895000Y-50145000D01*
X115895000Y-50145000D02*
X115895000Y-50595000D01*
X113750000Y-49250000D02*
X115000000Y-49250000D01*
X111750000Y-47250000D02*
X113750000Y-49250000D01*
%TO.N,GND*%
X112791215Y-38447712D02*
X114052288Y-38447712D01*
X114052288Y-38447712D02*
X114250000Y-38250000D01*
%TO.N,ESP_BOOT*%
X115500000Y-50200000D02*
X115895000Y-50595000D01*
%TO.N,+3V3*%
X100655000Y-69045000D02*
X100655000Y-68750000D01*
X101860000Y-70250000D02*
X100655000Y-69045000D01*
X103175000Y-70250000D02*
X101860000Y-70250000D01*
%TO.N,ESP_EN*%
X101925000Y-68925000D02*
X101925000Y-68095000D01*
X102475000Y-69475000D02*
X101925000Y-68925000D01*
X104825000Y-70250000D02*
X104050000Y-69475000D01*
X104050000Y-69475000D02*
X102475000Y-69475000D01*
X101925000Y-67145000D02*
X101925000Y-68095000D01*
X98635000Y-63855000D02*
X101925000Y-67145000D01*
X98635000Y-48266471D02*
X98635000Y-63855000D01*
X109107833Y-37793638D02*
X98635000Y-48266471D01*
X110793638Y-37793638D02*
X109107833Y-37793638D01*
%TO.N,UART_TX*%
X112530000Y-42000000D02*
X115070000Y-42000000D01*
X115070000Y-42000000D02*
X116384695Y-40685305D01*
X104465000Y-50065000D02*
X112530000Y-42000000D01*
X104465000Y-50595000D02*
X104465000Y-50065000D01*
%TO.N,GND*%
X99385000Y-48635000D02*
X99250000Y-48500000D01*
X99385000Y-50595000D02*
X99385000Y-48635000D01*
X114250000Y-37750000D02*
X114250000Y-38250000D01*
X115578249Y-36421751D02*
X114250000Y-37750000D01*
%TO.N,VBUS_5V*%
X117843502Y-36000000D02*
X116921751Y-35078249D01*
X120000000Y-36000000D02*
X119093324Y-36000000D01*
X120250000Y-36250000D02*
X120000000Y-36000000D01*
X120250000Y-36961421D02*
X120250000Y-36250000D01*
X118576726Y-38634695D02*
X120250000Y-36961421D01*
X118435305Y-38634695D02*
X118576726Y-38634695D01*
%TO.N,RST_CP2102N*%
X119166637Y-37337677D02*
X118152462Y-38351852D01*
X119166637Y-36916637D02*
X119166637Y-37337677D01*
%TO.N,3V3_USB*%
X120118008Y-38083363D02*
X119000990Y-39200381D01*
X120333363Y-38083363D02*
X120118008Y-38083363D01*
%TO.N,USB_D\u2212*%
X119120609Y-40000000D02*
X119000990Y-40119619D01*
X120000000Y-40000000D02*
X119120609Y-40000000D01*
X120150000Y-42900000D02*
X119750000Y-42500000D01*
X127750000Y-40250000D02*
X125100000Y-42900000D01*
X127750000Y-39295000D02*
X127750000Y-40250000D01*
X125100000Y-42900000D02*
X120150000Y-42900000D01*
%TO.N,GND*%
X116828249Y-44578249D02*
X115500000Y-43250000D01*
X116828249Y-44671751D02*
X116828249Y-44578249D01*
%TO.N,+3V3*%
X121024999Y-44024999D02*
X121024999Y-45500000D01*
X118171751Y-43328249D02*
X120328249Y-43328249D01*
X120328249Y-43328249D02*
X121024999Y-44024999D01*
%TO.N,GND*%
X120750000Y-49500000D02*
X121250000Y-49500000D01*
X122550000Y-52000000D02*
X121000000Y-52000000D01*
X123200001Y-51349999D02*
X122550000Y-52000000D01*
X126750000Y-46300001D02*
X126750000Y-44750000D01*
X126000000Y-47050001D02*
X126750000Y-46300001D01*
%TO.N,VBUS_5V*%
X127900001Y-48949999D02*
X128350000Y-48500000D01*
X126000000Y-48949999D02*
X127900001Y-48949999D01*
%TO.N,GND*%
X117410000Y-39094314D02*
X117410000Y-39660000D01*
X116667538Y-38351852D02*
X117410000Y-39094314D01*
X118803962Y-41696038D02*
X118750000Y-41750000D01*
X118803962Y-41053962D02*
X118803962Y-41696038D01*
X118435305Y-40685305D02*
X118803962Y-41053962D01*
X121100000Y-40600000D02*
X121000000Y-40500000D01*
X121100000Y-41750000D02*
X121100000Y-40600000D01*
%TO.N,+3V3*%
X123675001Y-50850001D02*
X123200001Y-50850001D01*
X124000000Y-51175000D02*
X123675001Y-50850001D01*
X124000000Y-51500000D02*
X124000000Y-51175000D01*
X121024999Y-47577941D02*
X122098529Y-48651471D01*
X121024999Y-45500000D02*
X121024999Y-47577941D01*
%TO.N,VBUS_5V*%
X118435305Y-38634695D02*
X118718148Y-38917538D01*
%TO.N,GND*%
X118435305Y-40685305D02*
X117410000Y-39660000D01*
%TO.N,VBUS_5V*%
X128178249Y-48328249D02*
X128350000Y-48500000D01*
%TO.N,CC1*%
X126750000Y-42675000D02*
X128250000Y-41175000D01*
X128250000Y-41175000D02*
X128250000Y-39294999D01*
%TO.N,CC2*%
X125250000Y-40019999D02*
X125250000Y-39295000D01*
X123519999Y-41750000D02*
X125250000Y-40019999D01*
X122750000Y-41750000D02*
X123519999Y-41750000D01*
%TO.N,USB_D+*%
X120815686Y-42500000D02*
X118718148Y-40402462D01*
X123802409Y-42500000D02*
X120815686Y-42500000D01*
X126250000Y-40052409D02*
X123802409Y-42500000D01*
X126250000Y-39295000D02*
X126250000Y-40052409D01*
%TO.N,VBUS_RAW*%
X128555406Y-37470000D02*
X129450001Y-38364595D01*
X129450001Y-38364595D02*
X129450001Y-39295000D01*
X124549999Y-38700001D02*
X125780000Y-37470000D01*
X125780000Y-37470000D02*
X128555406Y-37470000D01*
X124549999Y-39295000D02*
X124549999Y-38700001D01*
X124549999Y-39295000D02*
X124549999Y-39852409D01*
%TO.N,*%
X125750000Y-39294999D02*
X125700000Y-39294999D01*
X128750000Y-38537589D02*
X128750000Y-39295000D01*
X128082411Y-37870000D02*
X128750000Y-38537589D01*
X126417590Y-37870000D02*
X128082411Y-37870000D01*
X125750000Y-38537590D02*
X126417590Y-37870000D01*
X125750000Y-39294999D02*
X125750000Y-38537590D01*
%TO.N,USB_D\u2212*%
X127750000Y-38537590D02*
X127750000Y-39295000D01*
X127482410Y-38270000D02*
X127750000Y-38537590D01*
X126750000Y-38537590D02*
X127017590Y-38270000D01*
X126750000Y-39295000D02*
X126750000Y-38537590D01*
X127017590Y-38270000D02*
X127482410Y-38270000D01*
%TO.N,USB_D+*%
X126250000Y-40052410D02*
X126250000Y-39295000D01*
X126982410Y-40320000D02*
X126517590Y-40320000D01*
X127250000Y-40052410D02*
X126982410Y-40320000D01*
X127250000Y-39295000D02*
X127250000Y-40052410D01*
X126517590Y-40320000D02*
X126250000Y-40052410D01*
%TO.N,VBUS_RAW*%
X128687501Y-45087500D02*
X128687501Y-40614909D01*
X128687501Y-45087500D02*
X128687501Y-46037501D01*
X128687501Y-46037501D02*
X131150000Y-48500000D01*
%TO.N,SW*%
X123675000Y-50349999D02*
X123975001Y-50049998D01*
X123975001Y-50049998D02*
X123975001Y-45500000D01*
X123200001Y-50349999D02*
X123675000Y-50349999D01*
%TO.N,GND*%
X121299999Y-51700001D02*
X121000000Y-52000000D01*
X121299999Y-51349999D02*
X121299999Y-51700001D01*
%TO.N,VBUS_5V*%
X123600000Y-53250000D02*
X128350000Y-48500000D01*
X120000000Y-52500000D02*
X120750000Y-53250000D01*
X120750000Y-53250000D02*
X123600000Y-53250000D01*
X120000000Y-51675000D02*
X120000000Y-52500000D01*
X121299999Y-50850001D02*
X120824999Y-50850001D01*
X120824999Y-50850001D02*
X120000000Y-51675000D01*
X121299999Y-50349999D02*
X121299999Y-50850001D01*
%TO.N,GND*%
X122680000Y-34200000D02*
X131320000Y-34200000D01*
X122835000Y-38380000D02*
X123750000Y-39295000D01*
X122680000Y-38380000D02*
X122835000Y-38380000D01*
X130405000Y-39295000D02*
X131320000Y-38380000D01*
X130250000Y-39295000D02*
X130405000Y-39295000D01*
X130587499Y-39632499D02*
X130250000Y-39295000D01*
X130587499Y-45087500D02*
X130587499Y-39632499D01*
%TD*%
M02*
